G04*
G04 #@! TF.GenerationSoftware,Altium Limited,Altium Designer,21.0.3 (12)*
G04*
G04 Layer_Physical_Order=3*
G04 Layer_Color=16440176*
%FSLAX24Y24*%
%MOIN*%
G70*
G04*
G04 #@! TF.SameCoordinates,1E16EE85-DA87-49D5-AC5D-84A0441416AD*
G04*
G04*
G04 #@! TF.FilePolarity,Positive*
G04*
G01*
G75*
%ADD10C,0.0070*%
%ADD11C,0.0060*%
%ADD44C,0.0043*%
%ADD50C,0.0157*%
%ADD69R,0.0378X0.0378*%
%ADD70O,0.0348X0.0378*%
%ADD71C,0.0378*%
%ADD72C,0.0259*%
%ADD73C,0.0159*%
%ADD74C,0.0150*%
D10*
X1670Y2850D02*
G03*
X1810Y2530I424J-5D01*
G01*
X2835Y1930D02*
G03*
X3120Y1825I271J296D01*
G01*
X3030Y2175D02*
G03*
X3255Y2100I203J233D01*
G01*
X3015Y5015D02*
G03*
X2365Y4310I195J-832D01*
G01*
X2765Y5680D02*
G03*
X2170Y5440I320J-1652D01*
G01*
X1380Y4650D02*
G03*
X1060Y4025I832J-820D01*
G01*
X5410Y2755D02*
G03*
X4870Y2930I-549J-774D01*
G01*
X6535Y1280D02*
G03*
X6325Y1840I-762J34D01*
G01*
X3730Y5650D02*
G03*
X2850Y6105I-871J-606D01*
G01*
X5520Y2260D02*
G03*
X5070Y2365I-474J-1017D01*
G01*
X3980Y5540D02*
G03*
X3765Y5910I-757J-193D01*
G01*
X3890Y3355D02*
G03*
X3535Y2925I807J-1028D01*
G01*
X2395Y4770D02*
G03*
X2205Y4275I751J-572D01*
G01*
X3365Y1555D02*
G03*
X3100Y1670I-266J-251D01*
G01*
X3965Y3195D02*
G03*
X3725Y2880I248J-438D01*
G01*
X4125Y5565D02*
G03*
X3930Y5905I-480J-50D01*
G01*
X3895Y6455D02*
G03*
X3930Y5905I439J-248D01*
G01*
X3015Y5015D02*
G03*
X3475Y5120I-72J1377D01*
G01*
X2875Y2130D02*
G03*
X3260Y1970I352J304D01*
G01*
X6036Y1654D02*
G03*
X5935Y1845I-436J-108D01*
G01*
X4040Y1280D02*
G03*
X3560Y1825I-608J-51D01*
G01*
X2720Y1835D02*
G03*
X3100Y1670I336J253D01*
G01*
X1985Y2980D02*
G03*
X2160Y2605I806J148D01*
G01*
X1810Y3110D02*
G03*
X1990Y2565I653J-87D01*
G01*
X1725Y3370D02*
G03*
X1210Y3135I-99J-464D01*
G01*
X1210Y2790D02*
G03*
X1350Y2472I516J38D01*
G01*
X1060Y2700D02*
G03*
X1220Y2310I533J-9D01*
G01*
X3890Y3355D02*
G03*
X3980Y3515I-115J170D01*
G01*
X3965Y3195D02*
G03*
X4125Y3490I-200J299D01*
G01*
X3895Y6455D02*
G03*
X4035Y6820I-307J326D01*
G01*
X3535Y6820D02*
G03*
X3765Y5910I1346J-144D01*
G01*
X4335Y5895D02*
G03*
X4534Y6820I-654J624D01*
G01*
X4765Y6065D02*
G03*
X4530Y5605I388J-488D01*
G01*
X4765Y6065D02*
G03*
X5033Y6820I-545J618D01*
G01*
X2240Y6310D02*
G03*
X2850Y6105I497J470D01*
G01*
X3500Y5510D02*
G03*
X2805Y5880I-709J-494D01*
G01*
X2038Y6820D02*
G03*
X2240Y6310I526J-87D01*
G01*
X1545Y6135D02*
G03*
X2230Y5880I627J636D01*
G01*
X3305Y5310D02*
G03*
X2765Y5680I-500J-151D01*
G01*
X2835Y1930D02*
X2835Y1930D01*
X2160Y2605D02*
X2835Y1930D01*
X3120Y1825D02*
X3560D01*
X3255Y2100D02*
X4380D01*
X2365Y3615D02*
Y4310D01*
Y4310D01*
X1060Y2700D02*
Y4025D01*
X1380Y4650D02*
X2170Y5440D01*
X3980Y3515D02*
Y5540D01*
X3535Y2740D02*
Y2925D01*
X1210Y2790D02*
Y3135D01*
X3365Y1555D02*
X3365Y1555D01*
X3725Y2565D02*
Y2880D01*
X2370Y2835D02*
Y3005D01*
Y2835D02*
X3030Y2175D01*
X4539Y1280D02*
Y1431D01*
X4000Y1970D02*
X4539Y1431D01*
X3260Y1970D02*
X4000D01*
X2190Y2815D02*
X2875Y2130D01*
X2190Y2815D02*
Y3440D01*
X2365Y3615D01*
X3475Y5120D02*
X3700Y5345D01*
X4380Y2100D02*
X5038Y1442D01*
Y1280D02*
Y1442D01*
X3240Y2230D02*
X4705D01*
X5537Y1398D01*
Y1280D02*
Y1398D01*
X3275Y2450D02*
X3360Y2365D01*
X5070D01*
X6036Y1280D02*
Y1654D01*
X5520Y2260D02*
X5935Y1845D01*
X4250Y2930D02*
X4870D01*
X5410Y2755D02*
X6325Y1840D01*
X1990Y2565D02*
X2720Y1835D01*
X1810Y3110D02*
Y3130D01*
X2035Y3355D01*
Y3645D01*
X2205Y3815D01*
Y4275D01*
X2395Y4770D02*
X2925Y5300D01*
X1590Y3140D02*
X1670Y3060D01*
Y2850D02*
Y3060D01*
X1810Y2530D02*
X3041Y1299D01*
X3365Y1555D02*
X3540Y1380D01*
Y1280D02*
Y1380D01*
X1350Y2472D02*
X2542Y1280D01*
X1220Y2310D02*
X2043Y1487D01*
Y1280D02*
Y1487D01*
X4125Y3490D02*
Y5565D01*
X2230Y5880D02*
X2805D01*
X1040Y6640D02*
X1545Y6135D01*
X1040Y6640D02*
Y6820D01*
D11*
X3115Y2675D02*
G03*
X3240Y2230I183J-189D01*
G01*
X6210Y1655D02*
Y1760D01*
X5385Y2585D02*
X6210Y1760D01*
D44*
X1189Y1545D02*
G03*
X901Y1545I-144J-265D01*
G01*
X1688D02*
G03*
X1400Y1545I-144J-265D01*
G01*
X913Y2701D02*
G03*
X1117Y2205I680J-10D01*
G01*
X2523Y2890D02*
G03*
X2562Y3005I-153J115D01*
G01*
D02*
G03*
X2337Y3194I-192J0D01*
G01*
X2469Y3511D02*
G03*
X2512Y3615I-104J104D01*
G01*
X2469Y3511D02*
G03*
X2512Y3615I-104J104D01*
G01*
X2926Y2645D02*
G03*
X2894Y2519I373J-159D01*
G01*
X3347Y2628D02*
G03*
X3303Y2640I-72J-178D01*
G01*
D02*
G03*
X3307Y2675I-188J35D01*
G01*
X3388Y2863D02*
G03*
X3347Y2628I127J-143D01*
G01*
X3307Y2675D02*
G03*
X2926Y2645I-192J0D01*
G01*
X3404Y2992D02*
G03*
X3388Y2925I131J-67D01*
G01*
X4098Y2512D02*
G03*
X4157Y2650I-133J138D01*
G01*
D02*
G03*
X3872Y2818I-192J0D01*
G01*
X4038Y3067D02*
G03*
X3872Y2860I176J-310D01*
G01*
X3799Y3471D02*
G03*
X3404Y2992I898J-1144D01*
G01*
X4373Y3077D02*
G03*
X4373Y2783I-123J-147D01*
G01*
X4047Y3073D02*
G03*
X4272Y3487I-282J421D01*
G01*
X3808Y3477D02*
G03*
X3833Y3520I-33J48D01*
G01*
X1275Y4753D02*
G03*
X915Y4050I937J-924D01*
G01*
X1427Y6540D02*
G03*
X1651Y6540I112J280D01*
G01*
X3037Y4869D02*
G03*
X2512Y4299I173J-686D01*
G01*
X3037Y4869D02*
G03*
X3532Y4984I-94J1523D01*
G01*
X3536Y4986D02*
G03*
X3579Y5016I-61J134D01*
G01*
X3536Y4986D02*
G03*
X3579Y5016I-61J134D01*
G01*
X3717Y5154D02*
G03*
X3833Y5207I-17J191D01*
G01*
X1443Y6029D02*
G03*
X2235Y5733I729J742D01*
G01*
X1648Y6240D02*
G03*
X2220Y6027I523J531D01*
G01*
X2090Y5564D02*
G03*
X2066Y5544I80J-124D01*
G01*
X2420Y5733D02*
G03*
X2090Y5564I665J-1705D01*
G01*
X1912Y6540D02*
G03*
X2141Y6200I652J193D01*
G01*
D02*
G03*
X2384Y6027I596J579D01*
G01*
X4682Y1545D02*
G03*
X4604Y1574I-144J-265D01*
G01*
X5680Y1545D02*
G03*
X5563Y1580I-144J-265D01*
G01*
X5435Y2137D02*
G03*
X5069Y2218I-389J-893D01*
G01*
X5548Y2409D02*
G03*
X5073Y2512I-503J-1165D01*
G01*
X6327Y1581D02*
G03*
X6220Y1737I-554J-268D01*
G01*
X5889Y1634D02*
G03*
X5828Y1744I-289J-89D01*
G01*
X6183Y1654D02*
G03*
X6179Y1690I-147J-0D01*
G01*
X6183Y1654D02*
G03*
X6178Y1691I-147J0D01*
G01*
D02*
G03*
X6121Y1836I-579J-146D01*
G01*
X6643Y1581D02*
G03*
X6432Y1942I-870J-268D01*
G01*
X4882Y4070D02*
G03*
X4882Y4070I-192J0D01*
G01*
X5315Y2642D02*
G03*
X4870Y2783I-454J-660D01*
G01*
X5495Y2875D02*
G03*
X4871Y3077I-634J-894D01*
G01*
X4271Y5580D02*
G03*
X4237Y5730I-627J-65D01*
G01*
D02*
G03*
X4367Y5706I98J165D01*
G01*
D02*
G03*
X4722Y5605I163J-101D01*
G01*
D02*
G03*
X4694Y5704I-192J0D01*
G01*
X4856Y5949D02*
G03*
X4694Y5704I298J-373D01*
G01*
X4862Y5955D02*
G03*
X5181Y6540I-642J729D01*
G01*
X5420D02*
G03*
X5643Y6540I112J280D01*
G01*
X5919D02*
G03*
X6143Y6540I112J280D01*
G01*
X6418D02*
G03*
X6642Y6540I112J280D01*
G01*
X785Y1545D02*
X901D01*
X785Y1579D02*
X1008D01*
X785Y1894D02*
X1428D01*
X953Y1567D02*
Y2459D01*
X785Y1933D02*
X1388D01*
X785Y1618D02*
X1703D01*
X785Y1658D02*
X1664D01*
X785Y1697D02*
X1625D01*
X785Y1737D02*
X1585D01*
X785Y1776D02*
X1546D01*
X785Y1815D02*
X1507D01*
X785Y1855D02*
X1467D01*
X785Y2248D02*
X1076D01*
X785Y2288D02*
X1045D01*
X785Y2327D02*
X1018D01*
X785Y2366D02*
X995D01*
X785Y2406D02*
X975D01*
X785Y2445D02*
X959D01*
X785Y1973D02*
X1349D01*
X785Y2012D02*
X1310D01*
X785Y2052D02*
X1270D01*
X785Y2091D02*
X1231D01*
X785Y2130D02*
X1192D01*
X785Y2170D02*
X1152D01*
X785Y2209D02*
X1113D01*
X1189Y1545D02*
X1400D01*
X1308D02*
Y2014D01*
X1347Y1545D02*
Y1975D01*
X1190Y1545D02*
Y2132D01*
X1229Y1545D02*
Y2093D01*
X1268Y1545D02*
Y2054D01*
X1688Y1545D02*
X1777D01*
X1701D02*
Y1620D01*
X1117Y2205D02*
X1777Y1545D01*
X1386D02*
Y1935D01*
X1426Y1557D02*
Y1896D01*
X1662Y1557D02*
Y1660D01*
X1111Y1574D02*
Y2211D01*
X1150Y1562D02*
Y2172D01*
X1465Y1571D02*
Y1857D01*
X993Y1577D02*
Y2371D01*
X1032Y1581D02*
Y2306D01*
X1071Y1580D02*
Y2254D01*
X1082Y1579D02*
X1507D01*
X1741Y1545D02*
Y1581D01*
X1581Y1579D02*
X1743D01*
X1505Y1579D02*
Y1817D01*
X1544Y1581D02*
Y1778D01*
X1583Y1579D02*
Y1739D01*
X1623Y1571D02*
Y1699D01*
X785Y2603D02*
X918D01*
X785Y2642D02*
X914D01*
X785Y2681D02*
X913D01*
X785Y2721D02*
X913D01*
X785Y2760D02*
X913D01*
X785Y2800D02*
X913D01*
X785Y2485D02*
X945D01*
X785Y2524D02*
X934D01*
X785Y2563D02*
X925D01*
X785Y2839D02*
X913D01*
X785Y2878D02*
X913D01*
X785Y2918D02*
X913D01*
X785Y2957D02*
X913D01*
X785Y2996D02*
X913D01*
X785Y3036D02*
X913D01*
X785Y3075D02*
X913D01*
X785Y3115D02*
X913D01*
X785Y3154D02*
X913D01*
X785Y3193D02*
X913D01*
X785Y3233D02*
X913D01*
X785Y3272D02*
X913D01*
X785Y3311D02*
X913D01*
X785Y3351D02*
X913D01*
X785Y3390D02*
X913D01*
X785Y3429D02*
X913D01*
X785Y3469D02*
X913D01*
X785Y1545D02*
Y6519D01*
X914Y1551D02*
Y2650D01*
X913Y2701D02*
Y4025D01*
X796Y1545D02*
Y6519D01*
X835Y1545D02*
Y6519D01*
X875Y1545D02*
Y6519D01*
X2607Y2806D02*
Y4553D01*
X2567Y2846D02*
Y4479D01*
X2686Y2728D02*
Y4658D01*
X2646Y2767D02*
Y4610D01*
X2337Y3194D02*
Y3379D01*
X2371Y3197D02*
Y3412D01*
X2410Y3193D02*
Y3452D01*
X785Y3508D02*
X913D01*
X785Y3548D02*
X913D01*
X785Y3587D02*
X913D01*
X785Y3626D02*
X913D01*
X2337Y3379D02*
X2469Y3511D01*
X2449Y3180D02*
Y3491D01*
X2489Y3156D02*
Y3535D01*
X2528Y3113D02*
Y4371D01*
X2512Y3615D02*
Y4299D01*
X2810Y2603D02*
X2910D01*
X2850Y2563D02*
X2901D01*
X2523Y2890D02*
X2894Y2519D01*
X2771Y2642D02*
X2924D01*
X2732Y2681D02*
X2923D01*
X3304Y2642D02*
X3340D01*
X2692Y2721D02*
X2929D01*
X2653Y2760D02*
X2943D01*
X2614Y2800D02*
X2969D01*
X3287Y2760D02*
X3328D01*
X3261Y2800D02*
X3341D01*
X2574Y2839D02*
X3016D01*
X3214D02*
X3365D01*
X3388Y2863D02*
Y2925D01*
X2535Y2878D02*
X3388D01*
X2541Y2918D02*
X3388D01*
X2556Y2957D02*
X3391D01*
X2562Y2996D02*
X3406D01*
X2548Y3075D02*
X3450D01*
X2559Y3036D02*
X3427D01*
X4142Y2512D02*
Y2577D01*
X4122Y2760D02*
X4161D01*
X3872Y2818D02*
Y2860D01*
X4142Y2723D02*
Y2771D01*
X4098Y2512D02*
X5069D01*
X4109Y2524D02*
X5433D01*
X4136Y2563D02*
X5393D01*
X4151Y2603D02*
X5354D01*
X4157Y2642D02*
X5315D01*
X4154Y2681D02*
X5251D01*
X4143Y2721D02*
X5170D01*
X3872Y2839D02*
X3932D01*
X3906Y2832D02*
Y2937D01*
X4064Y2814D02*
Y2885D01*
X3945Y2841D02*
Y2992D01*
X3985Y2841D02*
Y3030D01*
X4024Y2832D02*
Y3059D01*
X3878Y2878D02*
X4065D01*
X3998Y2839D02*
X4081D01*
X3895Y2918D02*
X4059D01*
X3918Y2957D02*
X4060D01*
X3949Y2996D02*
X4070D01*
X3991Y3036D02*
X4090D01*
X2725Y2688D02*
Y4698D01*
X2804Y2609D02*
Y4762D01*
X2764Y2649D02*
Y4732D01*
X2843Y2570D02*
Y4788D01*
X2882Y2531D02*
Y4810D01*
X2922Y2636D02*
Y4829D01*
X2961Y2789D02*
Y4845D01*
X3001Y2829D02*
Y4859D01*
X3040Y2851D02*
Y4869D01*
X3079Y2863D02*
Y4872D01*
X3119Y2867D02*
Y4876D01*
X3158Y2862D02*
Y4881D01*
X3197Y2848D02*
Y4887D01*
X2406Y3193D02*
X3529D01*
X2527Y3115D02*
X3475D01*
X2491Y3154D02*
X3501D01*
X2337Y3233D02*
X3559D01*
X2337Y3272D02*
X3592D01*
X2337Y3311D02*
X3627D01*
X2337Y3351D02*
X3664D01*
X2348Y3390D02*
X3705D01*
X2388Y3429D02*
X3749D01*
X2427Y3469D02*
X3797D01*
X2466Y3508D02*
X3831D01*
X2496Y3548D02*
X3833D01*
X2510Y3587D02*
X3833D01*
X3237Y2823D02*
Y4895D01*
X3316Y2637D02*
Y4912D01*
X3276Y2779D02*
Y4903D01*
X3355Y2826D02*
Y4923D01*
X3394Y2968D02*
Y4934D01*
X3434Y3047D02*
Y4947D01*
X4051Y3075D02*
X4125D01*
X4064Y2975D02*
Y3084D01*
X4103Y3053D02*
Y3116D01*
X3473Y3112D02*
Y4961D01*
X3512Y3170D02*
Y4976D01*
X3552Y3223D02*
Y4994D01*
X3591Y3271D02*
Y5028D01*
X3630Y3315D02*
Y5067D01*
X3670Y3356D02*
Y5107D01*
X3709Y3394D02*
Y5146D01*
X3749Y3429D02*
Y5160D01*
X4101Y3115D02*
X4198D01*
X4142Y3089D02*
Y3155D01*
X4141Y3154D02*
X6975D01*
X3788Y3462D02*
Y5175D01*
X3827Y3500D02*
Y5202D01*
X3833Y3520D02*
Y5207D01*
X785Y3666D02*
X913D01*
X785Y3705D02*
X913D01*
X785Y3744D02*
X913D01*
X785Y3784D02*
X913D01*
X785Y3823D02*
X913D01*
X785Y3863D02*
X913D01*
X785Y3902D02*
X913D01*
X785Y3941D02*
X913D01*
X785Y3981D02*
X913D01*
X785Y4020D02*
X913D01*
X785Y4059D02*
X917D01*
X785Y4099D02*
X924D01*
X785Y4138D02*
X933D01*
X785Y4178D02*
X943D01*
X785Y4217D02*
X955D01*
X785Y4256D02*
X967D01*
X785Y4296D02*
X982D01*
X785Y4335D02*
X997D01*
X785Y4374D02*
X1014D01*
X785Y4414D02*
X1033D01*
X785Y4453D02*
X1053D01*
X785Y4492D02*
X1076D01*
X785Y4532D02*
X1099D01*
X785Y4571D02*
X1125D01*
X785Y4611D02*
X1153D01*
X785Y4650D02*
X1183D01*
X785Y4689D02*
X1216D01*
X785Y4729D02*
X1251D01*
X785Y4768D02*
X1290D01*
X785Y4807D02*
X1329D01*
X785Y4847D02*
X1369D01*
X785Y4886D02*
X1408D01*
X785Y4926D02*
X1447D01*
X785Y4965D02*
X1487D01*
X785Y5004D02*
X1526D01*
X785Y5044D02*
X1565D01*
X785Y5083D02*
X1605D01*
X785Y5122D02*
X1644D01*
X785Y5162D02*
X1684D01*
X1701Y5180D02*
Y5843D01*
X785Y5201D02*
X1723D01*
X785Y5831D02*
X1726D01*
X1741Y5219D02*
Y5824D01*
X785Y5870D02*
X1651D01*
X785Y5240D02*
X1762D01*
X785Y5280D02*
X1802D01*
X785Y5319D02*
X1841D01*
X1780Y5258D02*
Y5807D01*
X785Y5792D02*
X1821D01*
X1819Y5298D02*
Y5792D01*
X1859Y5337D02*
Y5779D01*
X1071Y4485D02*
Y6400D01*
X1111Y4550D02*
Y6361D01*
X1150Y4606D02*
Y6322D01*
X953Y4213D02*
Y6518D01*
X993Y4324D02*
Y6479D01*
X1032Y4412D02*
Y6440D01*
X785Y5910D02*
X1589D01*
X785Y5949D02*
X1534D01*
X785Y5989D02*
X1486D01*
X785Y6028D02*
X1444D01*
X953Y6519D02*
X1441Y6031D01*
X1190Y4658D02*
Y6282D01*
X1229Y4704D02*
Y6243D01*
X785Y6343D02*
X1129D01*
X785Y6382D02*
X1090D01*
X785Y6422D02*
X1050D01*
X785Y6461D02*
X1011D01*
X785Y6500D02*
X971D01*
X785Y6519D02*
X953D01*
X785Y6067D02*
X1405D01*
X785Y6107D02*
X1365D01*
X785Y6146D02*
X1326D01*
X785Y6185D02*
X1286D01*
X785Y6225D02*
X1247D01*
X785Y6264D02*
X1208D01*
X785Y6303D02*
X1168D01*
X1386Y4865D02*
Y6085D01*
X1426Y4904D02*
Y6046D01*
X1465Y4943D02*
Y6008D01*
X1268Y4746D02*
Y6204D01*
X1308Y4786D02*
Y6164D01*
X1347Y4825D02*
Y6125D01*
X1583Y5061D02*
Y5913D01*
X1623Y5101D02*
Y5888D01*
X1662Y5140D02*
Y5864D01*
X1505Y4983D02*
Y5973D01*
X1544Y5022D02*
Y5942D01*
X1780Y6136D02*
Y6540D01*
X1819Y6114D02*
Y6540D01*
X1386Y6502D02*
Y6540D01*
X1544Y6344D02*
Y6519D01*
X1505Y6384D02*
Y6521D01*
X1348Y6540D02*
X1427D01*
X1348Y6540D02*
X1428D01*
X1465Y6423D02*
Y6528D01*
X1426Y6462D02*
Y6540D01*
X1348D02*
X1648Y6240D01*
X1623Y6266D02*
Y6530D01*
X1583Y6305D02*
Y6522D01*
X1662Y6227D02*
Y6540D01*
X1741Y6162D02*
Y6540D01*
X1701Y6192D02*
Y6540D01*
X2512Y3626D02*
X3833D01*
X2512Y3666D02*
X3833D01*
X2512Y3705D02*
X3833D01*
X2512Y3744D02*
X3833D01*
X2512Y3784D02*
X3833D01*
X2512Y3823D02*
X3833D01*
X2512Y3863D02*
X3833D01*
X2512Y3902D02*
X3833D01*
X2512Y3941D02*
X3833D01*
X2512Y3981D02*
X3833D01*
X2512Y4020D02*
X3833D01*
X2512Y4059D02*
X3833D01*
X2512Y4099D02*
X3833D01*
X785Y5359D02*
X1880D01*
X785Y5398D02*
X1920D01*
X785Y5437D02*
X1959D01*
X785Y5477D02*
X1999D01*
X1276Y4754D02*
X2066Y5544D01*
X785Y5516D02*
X2038D01*
X2512Y4138D02*
X3833D01*
X2512Y4178D02*
X3833D01*
X2512Y4217D02*
X3833D01*
X2512Y4256D02*
X3833D01*
X2512Y4296D02*
X3833D01*
X2519Y4335D02*
X3833D01*
X2529Y4374D02*
X3833D01*
X2541Y4414D02*
X3833D01*
X2556Y4453D02*
X3833D01*
X2574Y4492D02*
X3833D01*
X2595Y4532D02*
X3833D01*
X2619Y4571D02*
X3833D01*
X2646Y4611D02*
X3833D01*
X2679Y4650D02*
X3833D01*
X2716Y4689D02*
X3833D01*
X2760Y4729D02*
X3833D01*
X2812Y4768D02*
X3833D01*
X2878Y4807D02*
X3833D01*
X2966Y4847D02*
X3833D01*
X3191Y4886D02*
X3833D01*
X3365Y4926D02*
X3833D01*
X3579Y5016D02*
X3717Y5154D01*
X3483Y4965D02*
X3833D01*
X3566Y5004D02*
X3833D01*
X3607Y5044D02*
X3833D01*
X3646Y5083D02*
X3833D01*
X3686Y5122D02*
X3833D01*
X3756Y5162D02*
X3833D01*
X785Y5555D02*
X2079D01*
X1938Y5416D02*
Y5758D01*
X785Y5595D02*
X2140D01*
X785Y5752D02*
X1962D01*
X1898Y5376D02*
Y5767D01*
Y6077D02*
Y6540D01*
X785Y5634D02*
X2209D01*
X785Y5674D02*
X2285D01*
X785Y5713D02*
X2371D01*
X1925Y6067D02*
X2309D01*
X1833Y6107D02*
X2249D01*
X1388Y6500D02*
X1925D01*
X1506Y6382D02*
X1981D01*
X1427Y6461D02*
X1941D01*
X1651Y6540D02*
X1912D01*
X1859Y6094D02*
Y6540D01*
X1650Y6540D02*
X1912D01*
X1664Y6225D02*
X2112D01*
X1765Y6146D02*
X2199D01*
X1710Y6185D02*
X2156D01*
X1545Y6343D02*
X2007D01*
X1467Y6422D02*
X1959D01*
X1624Y6264D02*
X2071D01*
X1585Y6303D02*
X2037D01*
X1977Y5455D02*
Y5749D01*
X2016Y5494D02*
Y5743D01*
X2056Y5534D02*
Y5737D01*
X2095Y5567D02*
Y5734D01*
X2134Y5591D02*
Y5732D01*
X2174Y5615D02*
Y5731D01*
X2213Y5637D02*
Y5732D01*
X2253Y5657D02*
Y5733D01*
X2235D02*
X2420D01*
X2292Y5677D02*
Y5733D01*
X2331Y5695D02*
Y5733D01*
X2056Y6034D02*
Y6281D01*
X2095Y6029D02*
Y6240D01*
X2134Y6026D02*
Y6206D01*
X1938Y6063D02*
Y6468D01*
X2016Y6042D02*
Y6330D01*
X1977Y6051D02*
Y6390D01*
X2110Y6028D02*
X2383D01*
X2231Y6027D02*
X2384D01*
X2292D02*
Y6078D01*
X2174Y6025D02*
Y6169D01*
X2213Y6026D02*
Y6134D01*
X2253Y6027D02*
Y6104D01*
X4481Y1697D02*
X4575D01*
X4615Y1572D02*
Y1657D01*
X4575Y1603D02*
Y1696D01*
X4225Y1953D02*
X4604Y1574D01*
X4536Y1642D02*
Y1736D01*
X4497Y1682D02*
Y1775D01*
X4682Y1545D02*
X4727D01*
X4599Y1579D02*
X4693D01*
X4319Y1953D02*
X4727Y1545D01*
X4520Y1658D02*
X4614D01*
X4654Y1558D02*
Y1618D01*
X4560Y1618D02*
X4653D01*
X4245Y1933D02*
X4338D01*
X4379Y1800D02*
Y1893D01*
X4339Y1839D02*
Y1933D01*
X4225Y1953D02*
X4319D01*
X4300Y1878D02*
Y1953D01*
X4260Y1918D02*
Y1953D01*
X4402Y1776D02*
X4496D01*
X4442Y1737D02*
X4535D01*
X4457Y1721D02*
Y1815D01*
X4324Y1855D02*
X4417D01*
X4284Y1894D02*
X4378D01*
X4418Y1760D02*
Y1854D01*
X4363Y1815D02*
X4457D01*
X4693Y1545D02*
Y1578D01*
X5560Y1584D02*
Y2012D01*
X5599Y1575D02*
Y1973D01*
X5442Y1702D02*
Y2130D01*
X5520Y1623D02*
Y2052D01*
X5481Y1662D02*
Y2091D01*
X5407Y1737D02*
X5834D01*
X5796Y1545D02*
Y1776D01*
X5678Y1546D02*
Y1894D01*
X5638Y1564D02*
Y1933D01*
X5717Y1545D02*
Y1855D01*
X5756Y1545D02*
Y1815D01*
X5052Y2091D02*
X5481D01*
X5131Y2012D02*
X5560D01*
X5092Y2052D02*
X5520D01*
X5013Y2130D02*
X5442D01*
X5402Y1741D02*
Y2150D01*
X5284Y1859D02*
Y2188D01*
X5289Y1855D02*
X5717D01*
X5367Y1776D02*
X5796D01*
X5328Y1815D02*
X5757D01*
X5210Y1933D02*
X5638D01*
X5170Y1973D02*
X5599D01*
X5435Y2137D02*
X5828Y1744D01*
X5249Y1894D02*
X5678D01*
X4182Y2512D02*
Y2751D01*
X4221Y2512D02*
Y2740D01*
X4260Y2512D02*
Y2739D01*
X4300Y2512D02*
Y2745D01*
X4339Y2512D02*
Y2760D01*
X4379Y2512D02*
Y2783D01*
X4925Y2218D02*
X5069D01*
X4974Y2170D02*
X5349D01*
X4969Y2174D02*
Y2218D01*
X4418Y2512D02*
Y2783D01*
X4457Y2512D02*
Y2783D01*
X4925Y2218D02*
X5563Y1580D01*
X4934Y2209D02*
X5178D01*
X4497Y2512D02*
Y2783D01*
X4536Y2512D02*
Y2783D01*
X4575Y2512D02*
Y2783D01*
X4615Y2512D02*
Y2783D01*
X4654Y2512D02*
Y2783D01*
X4693Y2512D02*
Y2783D01*
X4733Y2512D02*
Y2783D01*
X4772Y2512D02*
Y2783D01*
X4812Y2512D02*
Y2783D01*
X4851Y2512D02*
Y2783D01*
X4890Y2512D02*
Y2782D01*
X4930Y2512D02*
Y2780D01*
X4969Y2512D02*
Y2776D01*
X5008Y2135D02*
Y2218D01*
X5087Y2056D02*
Y2217D01*
X5048Y2095D02*
Y2218D01*
X5127Y2017D02*
Y2215D01*
X5205Y1938D02*
Y2205D01*
X5166Y1977D02*
Y2211D01*
X5245Y1899D02*
Y2198D01*
X5363Y1780D02*
Y2165D01*
X5323Y1820D02*
Y2178D01*
X5315Y2642D02*
X5548Y2409D01*
X5453Y2445D02*
X5512D01*
X5127Y2510D02*
Y2738D01*
X5205Y2502D02*
Y2705D01*
X5245Y2497D02*
Y2685D01*
X5008Y2512D02*
Y2769D01*
X5048Y2512D02*
Y2761D01*
X5166Y2507D02*
Y2723D01*
X5087Y2512D02*
Y2750D01*
X5310Y2485D02*
X5472D01*
X5481Y2435D02*
Y2476D01*
X5442Y2449D02*
Y2515D01*
X5284Y2490D02*
Y2662D01*
X5323Y2482D02*
Y2633D01*
X5363Y2472D02*
Y2594D01*
X5402Y2461D02*
Y2555D01*
X5574Y1579D02*
X5889D01*
X5680Y1545D02*
X5889D01*
Y1634D01*
X5835Y1545D02*
Y1735D01*
X5875Y1545D02*
Y1671D01*
X6183Y1545D02*
Y1654D01*
Y1545D02*
X6234D01*
Y1581D01*
X6183Y1579D02*
X6234D01*
X6190Y1545D02*
Y1767D01*
X6234Y1581D02*
X6327D01*
X6229Y1545D02*
Y1727D01*
X5446Y1697D02*
X5861D01*
X5525Y1618D02*
X5889D01*
X5485Y1658D02*
X5880D01*
X6150Y1776D02*
Y1807D01*
X6183Y1618D02*
X6308D01*
X6183Y1658D02*
X6283D01*
X6177Y1697D02*
X6254D01*
X6150Y1776D02*
X6181D01*
X6268Y1581D02*
Y1679D01*
X6165Y1737D02*
X6220D01*
X6840Y1027D02*
X6975D01*
X6840Y1028D02*
X6975D01*
X6840Y1067D02*
X6975D01*
X6840Y1107D02*
X6975D01*
X6840Y1027D02*
Y1545D01*
Y1146D02*
X6975D01*
X6840Y1185D02*
X6975D01*
X6840Y1225D02*
X6975D01*
X6840Y1264D02*
X6975D01*
X6840Y1303D02*
X6975D01*
X6840Y1343D02*
X6975D01*
X6840Y1382D02*
X6975D01*
X6840Y1422D02*
X6975D01*
X6840Y1461D02*
X6975D01*
X6840Y1500D02*
X6975D01*
X6840Y1540D02*
X6975D01*
X6308Y1581D02*
Y1619D01*
X6836Y1545D02*
Y1581D01*
X6643D02*
X6836D01*
X6630Y1618D02*
X6975D01*
X6836Y1579D02*
X6975D01*
X6615Y1658D02*
X6975D01*
X6579Y1737D02*
X6975D01*
X6532Y1815D02*
X6975D01*
X6598Y1697D02*
X6975D01*
X6557Y1776D02*
X6975D01*
X6071Y2302D02*
Y6521D01*
X6121Y1836D02*
X6220Y1737D01*
X6111Y2262D02*
Y6529D01*
X6190Y2184D02*
Y6540D01*
X6150Y2223D02*
Y6540D01*
X6164Y2209D02*
X6975D01*
X6243Y2130D02*
X6975D01*
X6204Y2170D02*
X6975D01*
X5514Y2859D02*
X6429Y1944D01*
X6085Y2288D02*
X6975D01*
X6229Y2144D02*
Y6540D01*
X6125Y2248D02*
X6975D01*
X5835Y2538D02*
Y6540D01*
X6032Y2341D02*
Y6519D01*
X5993Y2380D02*
Y6521D01*
X5875Y2499D02*
Y6540D01*
X5953Y2420D02*
Y6529D01*
X5914Y2459D02*
Y6540D01*
X5967Y2406D02*
X6975D01*
X6046Y2327D02*
X6975D01*
X6007Y2366D02*
X6975D01*
X5849Y2524D02*
X6975D01*
X5810Y2563D02*
X6975D01*
X5928Y2445D02*
X6975D01*
X5889Y2485D02*
X6975D01*
X6583Y1728D02*
Y6523D01*
X6544Y1797D02*
Y6519D01*
X6623Y1639D02*
Y6533D01*
X6662Y1581D02*
Y6540D01*
X6701Y1581D02*
Y6540D01*
X6741Y1581D02*
Y6540D01*
X6780Y1581D02*
Y6540D01*
X6819Y1581D02*
Y6540D01*
X6859Y1027D02*
Y7068D01*
X6898Y1027D02*
Y7068D01*
X6938Y1027D02*
Y7068D01*
X6975Y1027D02*
Y7068D01*
X6268Y2105D02*
Y6540D01*
X6504Y1855D02*
Y6520D01*
X6308Y2066D02*
Y6540D01*
X6386Y1987D02*
Y6540D01*
X6347Y2026D02*
Y6540D01*
X6465Y1904D02*
Y6526D01*
X6426Y1947D02*
Y6537D01*
X6439Y1933D02*
X6975D01*
X6505Y1855D02*
X6975D01*
X6474Y1894D02*
X6975D01*
X6322Y2052D02*
X6975D01*
X6282Y2091D02*
X6975D01*
X6400Y1973D02*
X6975D01*
X6361Y2012D02*
X6975D01*
X4182Y3109D02*
Y3205D01*
X4221Y3120D02*
Y3272D01*
X4260Y3121D02*
Y3385D01*
X4272Y3490D02*
Y5565D01*
X4379Y3077D02*
Y5487D01*
X4418Y3077D02*
Y5449D01*
X4339Y2760D02*
X5050D01*
X4373Y2783D02*
X4870D01*
X4373Y3077D02*
X4869D01*
X4272Y3902D02*
X4598D01*
X4272Y3941D02*
X4548D01*
X4457Y3077D02*
Y5428D01*
X4272Y3981D02*
X4520D01*
X4272Y5437D02*
X4437D01*
X4272Y5477D02*
X4387D01*
X4272Y5516D02*
X4360D01*
X4272Y5555D02*
X4345D01*
X4270Y5595D02*
X4339D01*
X4272Y4020D02*
X4505D01*
X4272Y4059D02*
X4499D01*
X4272Y4099D02*
X4500D01*
X4272Y4138D02*
X4511D01*
X4272Y4178D02*
X4531D01*
X4272Y4217D02*
X4567D01*
X4272Y4256D02*
X4644D01*
X5770Y2603D02*
X6975D01*
X5731Y2642D02*
X6975D01*
X4497Y3077D02*
Y5416D01*
X4536Y3077D02*
Y3956D01*
X5613Y2760D02*
X6975D01*
X5692Y2681D02*
X6975D01*
X5652Y2721D02*
X6975D01*
X5491Y2878D02*
X6975D01*
X5430Y2918D02*
X6975D01*
X5574Y2800D02*
X6975D01*
X5534Y2839D02*
X6975D01*
X4575Y3077D02*
Y3916D01*
X4615Y3077D02*
Y3894D01*
X4654Y3077D02*
Y3882D01*
X4536Y4184D02*
Y5413D01*
X4575Y4224D02*
Y5419D01*
X4615Y4246D02*
Y5433D01*
X4693Y3077D02*
Y3878D01*
X4733Y3077D02*
Y3883D01*
X4772Y3077D02*
Y3897D01*
X4654Y4258D02*
Y5459D01*
X4693Y4262D02*
Y5505D01*
X4812Y3077D02*
Y3922D01*
X4851Y3077D02*
Y3966D01*
X4300Y3115D02*
Y5707D01*
X4339Y3100D02*
Y5587D01*
X4772Y4243D02*
Y5863D01*
X4851Y4174D02*
Y5945D01*
X4890Y3077D02*
Y5980D01*
X4930Y3075D02*
Y6020D01*
X4969Y3072D02*
Y6065D01*
X5008Y3067D02*
Y6116D01*
X5048Y3061D02*
Y6175D01*
X5087Y3054D02*
Y6245D01*
X5127Y3045D02*
Y6334D01*
X5205Y3022D02*
Y6540D01*
X5166Y3034D02*
Y6462D01*
X4255Y5674D02*
X4351D01*
X4263Y5634D02*
X4340D01*
X4243Y5713D02*
X4275D01*
X4260Y5649D02*
Y5718D01*
X4339Y5623D02*
Y5703D01*
X4733Y4257D02*
Y5801D01*
X4812Y4218D02*
Y5909D01*
X5284Y2992D02*
Y6540D01*
X5520Y2853D02*
Y6519D01*
X5481Y2885D02*
Y6523D01*
X5363Y2956D02*
Y6540D01*
X5402Y2934D02*
Y6540D01*
X5442Y2911D02*
Y6532D01*
X5560Y2814D02*
Y6520D01*
X5638Y2735D02*
Y6538D01*
X5599Y2774D02*
Y6526D01*
X5717Y2656D02*
Y6540D01*
X5678Y2695D02*
Y6540D01*
X5796Y2577D02*
Y6540D01*
X5756Y2617D02*
Y6540D01*
X5181D02*
X5420D01*
X5323Y2975D02*
Y6540D01*
X5245Y3008D02*
Y6540D01*
X5181Y6540D02*
X5421D01*
X5643Y6540D02*
X5919D01*
X5643Y6540D02*
X5920D01*
X6143Y6540D02*
X6418D01*
X6142Y6540D02*
X6419D01*
X6642Y6540D02*
X6840D01*
Y7068D01*
X4173Y3193D02*
X6975D01*
X4200Y3233D02*
X6975D01*
X4221Y3272D02*
X6975D01*
X4238Y3311D02*
X6975D01*
X4251Y3351D02*
X6975D01*
X4261Y3390D02*
X6975D01*
X4268Y3429D02*
X6975D01*
X4272Y3469D02*
X6975D01*
X4272Y3508D02*
X6975D01*
X4272Y3548D02*
X6975D01*
X4272Y3587D02*
X6975D01*
X4272Y3626D02*
X6975D01*
X4272Y3666D02*
X6975D01*
X4272Y3705D02*
X6975D01*
X4272Y3744D02*
X6975D01*
X4272Y3784D02*
X6975D01*
X4272Y3823D02*
X6975D01*
X4272Y3863D02*
X6975D01*
X4272Y4296D02*
X6975D01*
X4272Y4335D02*
X6975D01*
X4272Y4374D02*
X6975D01*
X4272Y4414D02*
X6975D01*
X4272Y4453D02*
X6975D01*
X4272Y4492D02*
X6975D01*
X4272Y4532D02*
X6975D01*
X4272Y4571D02*
X6975D01*
X5160Y3036D02*
X6975D01*
X5360Y2957D02*
X6975D01*
X5274Y2996D02*
X6975D01*
X4302Y3115D02*
X6975D01*
X4929Y3075D02*
X6975D01*
X4782Y3902D02*
X6975D01*
X4832Y3941D02*
X6975D01*
X4860Y3981D02*
X6975D01*
X4875Y4020D02*
X6975D01*
X4869Y4138D02*
X6975D01*
X4849Y4178D02*
X6975D01*
X4881Y4059D02*
X6975D01*
X4880Y4099D02*
X6975D01*
X4272Y4611D02*
X6975D01*
X4813Y4217D02*
X6975D01*
X4736Y4256D02*
X6975D01*
X4272Y4650D02*
X6975D01*
X4272Y4689D02*
X6975D01*
X4272Y4729D02*
X6975D01*
X4272Y4768D02*
X6975D01*
X4272Y4807D02*
X6975D01*
X4272Y4847D02*
X6975D01*
X4272Y4886D02*
X6975D01*
X4272Y4926D02*
X6975D01*
X4272Y4965D02*
X6975D01*
X4272Y5004D02*
X6975D01*
X4272Y5044D02*
X6975D01*
X4272Y5083D02*
X6975D01*
X4272Y5122D02*
X6975D01*
X4272Y5162D02*
X6975D01*
X4272Y5201D02*
X6975D01*
X4272Y5240D02*
X6975D01*
X4272Y5280D02*
X6975D01*
X4272Y5319D02*
X6975D01*
X4272Y5359D02*
X6975D01*
X4272Y5398D02*
X6975D01*
X4623Y5437D02*
X6975D01*
X4672Y5477D02*
X6975D01*
X4700Y5516D02*
X6975D01*
X4715Y5555D02*
X6975D01*
X4721Y5595D02*
X6975D01*
X4719Y5634D02*
X6975D01*
X4709Y5674D02*
X6975D01*
X4696Y5713D02*
X6975D01*
X4710Y5752D02*
X6975D01*
X4728Y5792D02*
X6975D01*
X4750Y5831D02*
X6975D01*
X4778Y5870D02*
X6975D01*
X4812Y5910D02*
X6975D01*
X4856Y5949D02*
X6975D01*
X4899Y5989D02*
X6975D01*
X4937Y6028D02*
X6975D01*
X4971Y6067D02*
X6975D01*
X5002Y6107D02*
X6975D01*
X5029Y6146D02*
X6975D01*
X5054Y6185D02*
X6975D01*
X5076Y6225D02*
X6975D01*
X5096Y6264D02*
X6975D01*
X5114Y6303D02*
X6975D01*
X5130Y6343D02*
X6975D01*
X5144Y6382D02*
X6975D01*
X5156Y6422D02*
X6975D01*
X5166Y6461D02*
X6975D01*
X5174Y6500D02*
X6975D01*
X6641Y6540D02*
X6975D01*
X6840Y6579D02*
X6975D01*
X6840Y6618D02*
X6975D01*
X6840Y6658D02*
X6975D01*
X6840Y6697D02*
X6975D01*
X6840Y6737D02*
X6975D01*
X6840Y6776D02*
X6975D01*
X6840Y6815D02*
X6975D01*
X6840Y6855D02*
X6975D01*
X6840Y6894D02*
X6975D01*
X6840Y6933D02*
X6975D01*
X6840Y6973D02*
X6975D01*
X6840Y7012D02*
X6975D01*
X6840Y7052D02*
X6975D01*
X6840Y7068D02*
X6975D01*
D50*
X6031Y6540D02*
Y6820D01*
D69*
X1040D02*
D03*
X6535Y1280D02*
D03*
D70*
X6031Y7095D02*
D03*
X5532D02*
D03*
X5033D02*
D03*
X4534D02*
D03*
X4035D02*
D03*
X3535D02*
D03*
X3036D02*
D03*
X2537D02*
D03*
X2038D02*
D03*
X1539D02*
D03*
X6530D02*
D03*
X1040D02*
D03*
X1544Y1005D02*
D03*
X2043D02*
D03*
X2542D02*
D03*
X3041D02*
D03*
X3540D02*
D03*
X4040D02*
D03*
X4539D02*
D03*
X5038D02*
D03*
X5537D02*
D03*
X6036D02*
D03*
X1045D02*
D03*
X6535D02*
D03*
D71*
X6530Y6820D02*
D03*
X6031D02*
D03*
X5532D02*
D03*
X5033D02*
D03*
X4534D02*
D03*
X4035D02*
D03*
X3535D02*
D03*
X3036D02*
D03*
X2537D02*
D03*
X2038D02*
D03*
X1539D02*
D03*
X1045Y1280D02*
D03*
X1544D02*
D03*
X2043D02*
D03*
X2542D02*
D03*
X3041D02*
D03*
X3540D02*
D03*
X4040D02*
D03*
X4539D02*
D03*
X5038D02*
D03*
X5537D02*
D03*
X6036D02*
D03*
D72*
X6031Y7205D02*
D03*
X5532D02*
D03*
X5033D02*
D03*
X4534D02*
D03*
X4035D02*
D03*
X3535D02*
D03*
X3036D02*
D03*
X2537D02*
D03*
X2038D02*
D03*
X1539D02*
D03*
X6530D02*
D03*
X1040D02*
D03*
X1544Y895D02*
D03*
X2043D02*
D03*
X2542D02*
D03*
X3041D02*
D03*
X3540D02*
D03*
X4040D02*
D03*
X4539D02*
D03*
X5038D02*
D03*
X5537D02*
D03*
X6036D02*
D03*
X1045D02*
D03*
X6535D02*
D03*
D73*
X3305Y5310D02*
D03*
X3700Y5345D02*
D03*
X3500Y5510D02*
D03*
X2925Y5300D02*
D03*
X2235Y5035D02*
D03*
X1915Y4110D02*
D03*
X1725Y3370D02*
D03*
X1590Y3140D02*
D03*
X1985Y2980D02*
D03*
X1425Y2885D02*
D03*
X2370Y3005D02*
D03*
X3115Y2675D02*
D03*
X3275Y2450D02*
D03*
X3515Y2720D02*
D03*
X3725Y2565D02*
D03*
X3965Y2650D02*
D03*
X870Y1670D02*
D03*
X860Y2345D02*
D03*
X855Y3020D02*
D03*
Y5085D02*
D03*
Y5760D02*
D03*
Y6425D02*
D03*
X1395Y5880D02*
D03*
X1875Y5725D02*
D03*
X4335Y5895D02*
D03*
X4095Y6030D02*
D03*
X3730Y5650D02*
D03*
X4530Y5605D02*
D03*
X5775Y6100D02*
D03*
X6785Y6325D02*
D03*
X6395Y5815D02*
D03*
X6590Y6010D02*
D03*
X6815Y5925D02*
D03*
X6810Y5585D02*
D03*
X6845Y5265D02*
D03*
X6820Y4930D02*
D03*
X6645Y5000D02*
D03*
X6235Y4725D02*
D03*
X5985Y4405D02*
D03*
X5675Y4340D02*
D03*
X5580Y4030D02*
D03*
X5930Y3980D02*
D03*
X6865Y4300D02*
D03*
X6890Y3925D02*
D03*
X6875Y3550D02*
D03*
X6890Y3180D02*
D03*
X6880Y2805D02*
D03*
X6890Y2415D02*
D03*
X6875Y2040D02*
D03*
X6880Y1655D02*
D03*
X6660Y1715D02*
D03*
X6655Y2040D02*
D03*
X6665Y2355D02*
D03*
X6630Y3070D02*
D03*
Y3715D02*
D03*
X6380Y2600D02*
D03*
X6230Y2915D02*
D03*
X5965Y3230D02*
D03*
X5695Y3240D02*
D03*
X5485Y3000D02*
D03*
X5765Y2805D02*
D03*
X5990Y2600D02*
D03*
X6395Y2150D02*
D03*
X6210Y2330D02*
D03*
X6635Y2720D02*
D03*
X6650Y4075D02*
D03*
X6210Y1655D02*
D03*
X5680Y1675D02*
D03*
X4550Y1655D02*
D03*
X4250Y2930D02*
D03*
X4690Y4070D02*
D03*
X6635Y3405D02*
D03*
X6505Y5440D02*
D03*
X2715Y4525D02*
D03*
X3040Y4540D02*
D03*
X3385Y4530D02*
D03*
X3715Y4535D02*
D03*
X2720Y4185D02*
D03*
X3175Y4205D02*
D03*
X3580Y4185D02*
D03*
X3220Y3900D02*
D03*
X2730Y3825D02*
D03*
X3475Y3500D02*
D03*
X3750Y3555D02*
D03*
X6045Y6445D02*
D03*
X1775Y6425D02*
D03*
X860Y4400D02*
D03*
X845Y3740D02*
D03*
X1245Y1665D02*
D03*
D74*
X6031Y6459D02*
Y6820D01*
M02*
