M48
;Layer_Color=9474304
;FILE_FORMAT=2:4
INCH,TZ
;TYPE=PLATED
T1F00S00C0.0079
T2F00S00C0.0200
T3F00S00C0.0259
%
T01
X870Y1670
X1245Y1665
X860Y2345
X855Y3020
X1425Y2885
X1590Y3140
X1725Y3370
X1985Y2980
X2370Y3005
X3115Y2675
X3275Y2450
X3515Y2720
X3725Y2565
X3965Y2650
X4250Y2930
X3750Y3555
X3475Y3500
X3220Y3900
X3175Y4205
X3580Y4185
X3715Y4535
X3385Y4530
X3040Y4540
X2715Y4525
X2720Y4185
X2730Y3825
X1915Y4110
X2235Y5035
X2925Y5300
X3305Y5310
X3500Y5510
X3700Y5345
X3730Y5650
X4095Y6030
X4335Y5895
X4530Y5605
X4690Y4070
X5580Y4030
X5930Y3980
X5985Y4405
X5675Y4340
X6235Y4725
X6645Y5000
X6820Y4930
X6845Y5265
X6810Y5585
X6815Y5925
X6590Y6010
X6395Y5815
X6505Y5440
X6785Y6325
X6045Y6445
X5775Y6100
X6865Y4300
X6890Y3925
X6875Y3550
X6890Y3180
X6630Y3070
X6635Y3405
X6630Y3715
X6650Y4075
X6635Y2720
X6880Y2805
X6890Y2415
X6665Y2355
X6655Y2040
X6875
X6880Y1655
X6660Y1715
X6210Y1655
X5680Y1675
X4550Y1655
X5485Y3000
X5695Y3240
X5965Y3230
X6230Y2915
X6380Y2600
X5990
X5765Y2805
X6210Y2330
X6395Y2150
X845Y3740
X860Y4400
X855Y5085
Y5760
X1395Y5880
X1875Y5725
X1775Y6425
X855
T02
X1045Y1280
X1544
X2043
X2542
X3041
X3540
X4040
X4539
X5038
X5537
X6036
X6535
X6530Y6820
X6031
X5532
X5033
X4534
X4035
X3535
X3036
X2537
X2038
X1539
X1040
T03
X1045Y895
X1544
X2043
X2542
X3041
X3540
X4040
X4539
X5038
X5537
X6036
X6535
X6530Y7205
X6031
X5532
X5033
X4534
X4035
X3535
X3036
X2537
X2038
X1539
X1040
M30
