G04*
G04 #@! TF.GenerationSoftware,Altium Limited,Altium Designer,21.0.3 (12)*
G04*
G04 Layer_Physical_Order=4*
G04 Layer_Color=16711680*
%FSLAX24Y24*%
%MOIN*%
G70*
G04*
G04 #@! TF.SameCoordinates,1E16EE85-DA87-49D5-AC5D-84A0441416AD*
G04*
G04*
G04 #@! TF.FilePolarity,Positive*
G04*
G01*
G75*
%ADD10C,0.0070*%
%ADD42C,0.0080*%
%ADD43C,0.0190*%
%ADD47C,0.0110*%
%ADD50C,0.0157*%
%ADD69R,0.0378X0.0378*%
%ADD70O,0.0348X0.0378*%
%ADD71C,0.0378*%
%ADD72C,0.0259*%
%ADD73C,0.0159*%
%ADD75C,0.0035*%
D10*
X2165Y1980D02*
G03*
X1544Y1280I47J-667D01*
G01*
X3290Y1980D02*
G03*
X3965Y2650I-6J681D01*
G01*
X2165Y1980D02*
X3290D01*
D42*
X5200Y6350D02*
G03*
X5532Y6820I-126J441D01*
G01*
X4710Y6350D02*
G03*
X4095Y6030I92J-927D01*
G01*
X4710Y6350D02*
X5200D01*
D43*
X1510Y4350D02*
G03*
X1310Y3805I728J-576D01*
G01*
X1310Y3150D02*
G03*
X1425Y2885I559J85D01*
G01*
X6250Y6145D02*
G03*
X6530Y6820I-729J698D01*
G01*
X4685Y4995D02*
G03*
X5335Y5230I27J943D01*
G01*
X2155Y4995D02*
X4685D01*
X1310Y3150D02*
Y3805D01*
X6031Y6459D02*
Y6820D01*
Y7095D01*
X5335Y5230D02*
X6250Y6145D01*
X1510Y4350D02*
X2155Y4995D01*
D47*
X3015Y3575D02*
G03*
X3510Y3790I-83J868D01*
G01*
X2260Y3715D02*
G03*
X2535Y3575I342J331D01*
G01*
X4040Y4070D02*
G03*
X3510Y3790I105J-841D01*
G01*
X4040Y4070D02*
X4690D01*
X2535Y3575D02*
X3015D01*
X1915Y4060D02*
Y4110D01*
Y4060D02*
X2260Y3715D01*
D50*
X6031Y6540D02*
Y6820D01*
D69*
X1040D02*
D03*
X6535Y1280D02*
D03*
D70*
X6031Y7095D02*
D03*
X5532D02*
D03*
X5033D02*
D03*
X4534D02*
D03*
X4035D02*
D03*
X3535D02*
D03*
X3036D02*
D03*
X2537D02*
D03*
X2038D02*
D03*
X1539D02*
D03*
X6530D02*
D03*
X1040D02*
D03*
X1544Y1005D02*
D03*
X2043D02*
D03*
X2542D02*
D03*
X3041D02*
D03*
X3540D02*
D03*
X4040D02*
D03*
X4539D02*
D03*
X5038D02*
D03*
X5537D02*
D03*
X6036D02*
D03*
X1045D02*
D03*
X6535D02*
D03*
D71*
X6530Y6820D02*
D03*
X6031D02*
D03*
X5532D02*
D03*
X5033D02*
D03*
X4534D02*
D03*
X4035D02*
D03*
X3535D02*
D03*
X3036D02*
D03*
X2537D02*
D03*
X2038D02*
D03*
X1539D02*
D03*
X1045Y1280D02*
D03*
X1544D02*
D03*
X2043D02*
D03*
X2542D02*
D03*
X3041D02*
D03*
X3540D02*
D03*
X4040D02*
D03*
X4539D02*
D03*
X5038D02*
D03*
X5537D02*
D03*
X6036D02*
D03*
D72*
X6031Y7205D02*
D03*
X5532D02*
D03*
X5033D02*
D03*
X4534D02*
D03*
X4035D02*
D03*
X3535D02*
D03*
X3036D02*
D03*
X2537D02*
D03*
X2038D02*
D03*
X1539D02*
D03*
X6530D02*
D03*
X1040D02*
D03*
X1544Y895D02*
D03*
X2043D02*
D03*
X2542D02*
D03*
X3041D02*
D03*
X3540D02*
D03*
X4040D02*
D03*
X4539D02*
D03*
X5038D02*
D03*
X5537D02*
D03*
X6036D02*
D03*
X1045D02*
D03*
X6535D02*
D03*
D73*
X3305Y5310D02*
D03*
X3700Y5345D02*
D03*
X3500Y5510D02*
D03*
X2925Y5300D02*
D03*
X2235Y5035D02*
D03*
X1915Y4110D02*
D03*
X1725Y3370D02*
D03*
X1590Y3140D02*
D03*
X1985Y2980D02*
D03*
X1425Y2885D02*
D03*
X2370Y3005D02*
D03*
X3115Y2675D02*
D03*
X3275Y2450D02*
D03*
X3515Y2720D02*
D03*
X3725Y2565D02*
D03*
X3965Y2650D02*
D03*
X870Y1670D02*
D03*
X860Y2345D02*
D03*
X855Y3020D02*
D03*
Y5085D02*
D03*
Y5760D02*
D03*
Y6425D02*
D03*
X1395Y5880D02*
D03*
X1875Y5725D02*
D03*
X4335Y5895D02*
D03*
X4095Y6030D02*
D03*
X3730Y5650D02*
D03*
X4530Y5605D02*
D03*
X5775Y6100D02*
D03*
X6785Y6325D02*
D03*
X6395Y5815D02*
D03*
X6590Y6010D02*
D03*
X6815Y5925D02*
D03*
X6810Y5585D02*
D03*
X6845Y5265D02*
D03*
X6820Y4930D02*
D03*
X6645Y5000D02*
D03*
X6235Y4725D02*
D03*
X5985Y4405D02*
D03*
X5675Y4340D02*
D03*
X5580Y4030D02*
D03*
X5930Y3980D02*
D03*
X6865Y4300D02*
D03*
X6890Y3925D02*
D03*
X6875Y3550D02*
D03*
X6890Y3180D02*
D03*
X6880Y2805D02*
D03*
X6890Y2415D02*
D03*
X6875Y2040D02*
D03*
X6880Y1655D02*
D03*
X6660Y1715D02*
D03*
X6655Y2040D02*
D03*
X6665Y2355D02*
D03*
X6630Y3070D02*
D03*
Y3715D02*
D03*
X6380Y2600D02*
D03*
X6230Y2915D02*
D03*
X5965Y3230D02*
D03*
X5695Y3240D02*
D03*
X5485Y3000D02*
D03*
X5765Y2805D02*
D03*
X5990Y2600D02*
D03*
X6395Y2150D02*
D03*
X6210Y2330D02*
D03*
X6635Y2720D02*
D03*
X6650Y4075D02*
D03*
X6210Y1655D02*
D03*
X5680Y1675D02*
D03*
X4550Y1655D02*
D03*
X4250Y2930D02*
D03*
X4690Y4070D02*
D03*
X6635Y3405D02*
D03*
X6505Y5440D02*
D03*
X2715Y4525D02*
D03*
X3040Y4540D02*
D03*
X3385Y4530D02*
D03*
X3715Y4535D02*
D03*
X2720Y4185D02*
D03*
X3175Y4205D02*
D03*
X3580Y4185D02*
D03*
X3220Y3900D02*
D03*
X2730Y3825D02*
D03*
X3475Y3500D02*
D03*
X3750Y3555D02*
D03*
X6045Y6445D02*
D03*
X1775Y6425D02*
D03*
X860Y4400D02*
D03*
X845Y3740D02*
D03*
X1245Y1665D02*
D03*
D75*
X1214Y1525D02*
G03*
X876Y1525I-169J-245D01*
G01*
X1438Y1558D02*
G03*
X1375Y1525I106J-278D01*
G01*
X1265Y2759D02*
G03*
X1628Y2885I160J126D01*
G01*
X2212Y1525D02*
G03*
X1874Y1525I-169J-245D01*
G01*
X2170Y1837D02*
G03*
X1731Y1525I41J-523D01*
G01*
X2155Y2123D02*
G03*
X1438Y1558I56J-810D01*
G01*
X1109Y3119D02*
G03*
X1265Y2759I760J116D01*
G01*
X1107Y3150D02*
G03*
X1109Y3119I203J0D01*
G01*
X1543Y3322D02*
G03*
X1513Y3311I47J-182D01*
G01*
X1913Y3370D02*
G03*
X1543Y3322I-188J0D01*
G01*
X1628Y2885D02*
G03*
X1616Y2954I-203J0D01*
G01*
D02*
G03*
X1778Y3140I-26J186D01*
G01*
X2173Y2980D02*
G03*
X2173Y2980I-188J0D01*
G01*
X1778Y3140D02*
G03*
X1772Y3188I-188J0D01*
G01*
D02*
G03*
X1913Y3370I-47J182D01*
G01*
X2711Y1525D02*
G03*
X2374Y1525I-169J-245D01*
G01*
X3210D02*
G03*
X2873Y1525I-169J-245D01*
G01*
X3091Y2489D02*
G03*
X3463Y2450I184J-39D01*
G01*
X2558Y3005D02*
G03*
X2558Y3005I-188J0D01*
G01*
X2144Y3601D02*
G03*
X2512Y3413I458J446D01*
G01*
X3303Y2675D02*
G03*
X3091Y2489I-188J0D01*
G01*
X3031Y3412D02*
G03*
X3618Y3668I-99J1031D01*
G01*
X1351Y4476D02*
G03*
X1107Y3812I887J-702D01*
G01*
X1663Y4215D02*
G03*
X1513Y3802I575J-441D01*
G01*
X1764Y3999D02*
G03*
X1800Y3945I151J61D01*
G01*
X1764Y3999D02*
G03*
X1800Y3944I151J61D01*
G01*
X2103Y4110D02*
G03*
X1764Y3999I-188J0D01*
G01*
X1414Y6550D02*
G03*
X1664Y6550I125J270D01*
G01*
X2141Y5198D02*
G03*
X2011Y5138I14J-203D01*
G01*
X2141Y5198D02*
G03*
X2011Y5139I14J-203D01*
G01*
X1913Y6550D02*
G03*
X2163Y6550I125J270D01*
G01*
X2328Y5198D02*
G03*
X2141Y5198I-93J-163D01*
G01*
X2378Y3828D02*
G03*
X2548Y3738I224J218D01*
G01*
X3083Y5198D02*
G03*
X3113Y5300I-158J102D01*
G01*
X3007Y3738D02*
G03*
X3395Y3906I-75J705D01*
G01*
X3113Y5300D02*
G03*
X2767Y5198I-188J0D01*
G01*
X3313Y5498D02*
G03*
X3154Y5198I-8J-188D01*
G01*
X2412Y6550D02*
G03*
X2662Y6550I125J270D01*
G01*
X2911D02*
G03*
X3161Y6550I125J270D01*
G01*
X3709Y1525D02*
G03*
X3372Y1525I-169J-245D01*
G01*
X3291Y1837D02*
G03*
X4095Y2515I-7J824D01*
G01*
X3290Y2123D02*
G03*
X3741Y2378I-6J538D01*
G01*
X3357Y2619D02*
G03*
X3299Y2636I-82J-169D01*
G01*
X3463Y2450D02*
G03*
X3433Y2551I-188J0D01*
G01*
X3299Y2636D02*
G03*
X3303Y2675I-184J39D01*
G01*
X3433Y2551D02*
G03*
X3540Y2534I82J169D01*
G01*
D02*
G03*
X3741Y2378I185J31D01*
G01*
X4208Y1525D02*
G03*
X3871Y1525I-169J-245D01*
G01*
X3799Y2738D02*
G03*
X3700Y2751I-74J-173D01*
G01*
X4095Y2515D02*
G03*
X4153Y2650I-130J135D01*
G01*
X3700Y2751D02*
G03*
X3357Y2619I-185J-31D01*
G01*
X4153Y2650D02*
G03*
X3799Y2738I-188J0D01*
G01*
X4020Y4232D02*
G03*
X3395Y3906I126J-1003D01*
G01*
X4051Y3907D02*
G03*
X3633Y3682I95J-678D01*
G01*
X4438Y2930D02*
G03*
X4438Y2930I-188J0D01*
G01*
X4707Y1525D02*
G03*
X4370Y1525I-169J-245D01*
G01*
X5206D02*
G03*
X4869Y1525I-169J-245D01*
G01*
X5706D02*
G03*
X5368Y1525I-169J-245D01*
G01*
X6205D02*
G03*
X5867Y1525I-169J-245D01*
G01*
X4597Y3907D02*
G03*
X4878Y4070I93J163D01*
G01*
D02*
G03*
X4597Y4233I-188J0D01*
G01*
X3817Y5198D02*
G03*
X3888Y5345I-117J147D01*
G01*
D02*
G03*
X3823Y5487I-188J0D01*
G01*
X3547Y5692D02*
G03*
X3313Y5498I-47J-182D01*
G01*
X3823Y5487D02*
G03*
X3918Y5650I-93J163D01*
G01*
D02*
G03*
X3547Y5692I-188J0D01*
G01*
X4152Y5851D02*
G03*
X4375Y5712I183J44D01*
G01*
D02*
G03*
X4718Y5605I155J-107D01*
G01*
X4523Y5895D02*
G03*
X4373Y6079I-188J0D01*
G01*
X4718Y5605D02*
G03*
X4490Y5788I-188J0D01*
G01*
D02*
G03*
X4523Y5895I-155J107D01*
G01*
X3411Y6550D02*
G03*
X3660Y6550I125J270D01*
G01*
X4069Y6216D02*
G03*
X4152Y5851I26J-186D01*
G01*
X3910Y6550D02*
G03*
X4159Y6550I125J270D01*
G01*
X4695Y6497D02*
G03*
X4069Y6216I107J-1074D01*
G01*
X4718Y6202D02*
G03*
X4373Y6079I84J-779D01*
G01*
X4409Y6550D02*
G03*
X4659Y6550I125J270D01*
G01*
X4691Y5198D02*
G03*
X5196Y5379I21J740D01*
G01*
X4682Y4792D02*
G03*
X5468Y5077I29J1146D01*
G01*
X5200Y6202D02*
G03*
X5241Y6207I0J148D01*
G01*
X4908Y6550D02*
G03*
X5158Y6550I125J270D01*
G01*
X5177Y6498D02*
G03*
X5270Y6550I-103J293D01*
G01*
X5241Y6207D02*
G03*
X5625Y6538I-167J584D01*
G01*
X6398Y6006D02*
G03*
X6698Y6550I-877J838D01*
G01*
X6104Y6287D02*
G03*
X6272Y6550I-584J556D01*
G01*
X5625Y6538D02*
G03*
X5657Y6550I-94J282D01*
G01*
X5906D02*
G03*
X6156Y6550I125J270D01*
G01*
X763Y1525D02*
X876D01*
X763Y1540D02*
X900D01*
X763Y1571D02*
X984D01*
X1214Y1525D02*
X1375D01*
X1229D02*
Y2809D01*
X1197Y1535D02*
Y2861D01*
X1260Y1525D02*
Y2766D01*
X1292Y1525D02*
Y2731D01*
X1323Y1525D02*
Y2709D01*
X763Y1603D02*
X1453D01*
X763Y1634D02*
X1466D01*
X1190Y1540D02*
X1399D01*
X1106Y1571D02*
X1442D01*
X763Y1666D02*
X1480D01*
X763Y1697D02*
X1496D01*
X1355Y1525D02*
Y2694D01*
X1386Y1532D02*
Y2685D01*
X1418Y1549D02*
Y2682D01*
X763Y1729D02*
X1514D01*
X763Y1760D02*
X1534D01*
X763Y1792D02*
X1556D01*
X763Y2737D02*
X1286D01*
X763Y2705D02*
X1330D01*
X763Y2768D02*
X1258D01*
X763Y2800D02*
X1236D01*
X763Y2831D02*
X1215D01*
X763Y2863D02*
X1197D01*
X763Y2894D02*
X1180D01*
X763Y1823D02*
X1580D01*
X763Y1855D02*
X1607D01*
X763Y1886D02*
X1637D01*
X763Y1918D02*
X1670D01*
X763Y1949D02*
X1707D01*
X763Y1981D02*
X1750D01*
X763Y2012D02*
X1799D01*
X763Y2044D02*
X1858D01*
X763Y2075D02*
X1932D01*
X763Y2107D02*
X2040D01*
X1731Y1525D02*
X1874D01*
X1738Y1540D02*
X1898D01*
X1764Y1525D02*
Y1588D01*
X1796Y1525D02*
Y1634D01*
X1754Y1571D02*
X1982D01*
X1827Y1525D02*
Y1671D01*
X1859Y1525D02*
Y1702D01*
X1890Y1535D02*
Y1729D01*
X1922Y1552D02*
Y1751D01*
X1953Y1564D02*
Y1770D01*
X1985Y1572D02*
Y1787D01*
X2016Y1576D02*
Y1801D01*
X2048Y1577D02*
Y1812D01*
X2079Y1575D02*
Y1821D01*
X2237Y1525D02*
Y1837D01*
X2174Y1547D02*
Y1837D01*
X2205Y1529D02*
Y1837D01*
X1449Y1592D02*
Y2683D01*
X1481Y1667D02*
Y2690D01*
X1512Y1725D02*
Y2701D01*
X1544Y1775D02*
Y2720D01*
X1575Y1817D02*
Y2748D01*
X1607Y1855D02*
Y2794D01*
X1621Y2831D02*
X1871D01*
X1827Y2028D02*
Y2878D01*
X1627Y2863D02*
X1838D01*
X1859Y2044D02*
Y2841D01*
X1922Y2071D02*
Y2803D01*
X1609Y2800D02*
X1933D01*
X2111Y1570D02*
Y1829D01*
X1953Y2083D02*
Y2795D01*
X2142Y1560D02*
Y1834D01*
X1890Y2059D02*
Y2818D01*
X1985Y2093D02*
Y2792D01*
X2016Y2101D02*
Y2795D01*
X2048Y2108D02*
Y2803D01*
X2079Y2114D02*
Y2818D01*
X2111Y2119D02*
Y2841D01*
X763Y1525D02*
Y6523D01*
X788Y1525D02*
Y6523D01*
X819Y1525D02*
Y6523D01*
X851Y1525D02*
Y6523D01*
X882Y1529D02*
Y6523D01*
X914Y1547D02*
Y6523D01*
X945Y1560D02*
Y6523D01*
X977Y1570D02*
Y6523D01*
X1008Y1575D02*
Y6523D01*
X1040Y1577D02*
Y6523D01*
X763Y2926D02*
X1165D01*
X763Y2957D02*
X1152D01*
X1166Y1552D02*
Y2924D01*
X1134Y1564D02*
Y3009D01*
X763Y2989D02*
X1141D01*
X763Y3020D02*
X1131D01*
X763Y3052D02*
X1123D01*
X1071Y1576D02*
Y6523D01*
X1103Y1572D02*
Y6523D01*
X763Y3146D02*
X1107D01*
X763Y3178D02*
X1107D01*
X763Y3209D02*
X1107D01*
X763Y3241D02*
X1107D01*
X763Y3272D02*
X1107D01*
X763Y3304D02*
X1107D01*
X763Y3335D02*
X1107D01*
Y3150D02*
Y3803D01*
X763Y3366D02*
X1107D01*
X763Y3398D02*
X1107D01*
X763Y3083D02*
X1115D01*
X763Y3115D02*
X1110D01*
X763Y3429D02*
X1107D01*
X1513D02*
X1547D01*
X763Y3461D02*
X1107D01*
X1513D02*
X1561D01*
X1513Y3311D02*
Y3802D01*
X1544Y3420D02*
Y3984D01*
X1624Y2926D02*
X1805D01*
X1638Y1888D02*
Y2959D01*
X1670Y1918D02*
Y2970D01*
X1632Y2957D02*
X1799D01*
X1701Y1944D02*
Y2989D01*
X1733Y1969D02*
Y3018D01*
X1764Y1991D02*
Y3070D01*
X1796Y2010D02*
Y3196D01*
X2142Y2122D02*
Y2877D01*
X1628Y2894D02*
X1818D01*
X2205Y2123D02*
Y2915D01*
X2237Y2123D02*
Y2873D01*
X2152Y2894D02*
X2218D01*
X1701Y2989D02*
X1797D01*
X1734Y3020D02*
X1802D01*
X2174Y2123D02*
Y3571D01*
X2165Y2926D02*
X2200D01*
X1756Y3052D02*
X1811D01*
X1769Y3083D02*
X1828D01*
X1776Y3115D02*
X1854D01*
X1778Y3146D02*
X1897D01*
X1827Y3082D02*
Y3213D01*
X1859Y3119D02*
Y3238D01*
X1890Y3142D02*
Y3281D01*
Y3459D02*
Y3854D01*
X1922Y3157D02*
Y3822D01*
X2116Y3115D02*
X2217D01*
X2142Y3083D02*
X2199D01*
X2142Y3083D02*
Y3602D01*
X2205Y3095D02*
Y3545D01*
X1953Y3165D02*
Y3791D01*
X1985Y3168D02*
Y3759D01*
X2016Y3165D02*
Y3728D01*
X2079Y3142D02*
Y3665D01*
X2048Y3157D02*
Y3696D01*
X2111Y3119D02*
Y3633D01*
X2188Y1540D02*
X2397D01*
X2104Y1571D02*
X2482D01*
X2212Y1525D02*
X2374D01*
X2268D02*
Y1837D01*
X2300Y1525D02*
Y1837D01*
X2331Y1525D02*
Y1837D01*
X2363Y1525D02*
Y1837D01*
X2394Y1538D02*
Y1837D01*
X2426Y1554D02*
Y1837D01*
X2457Y1565D02*
Y1837D01*
X1773Y1603D02*
X6945D01*
X1796Y1634D02*
X6945D01*
X1822Y1666D02*
X6945D01*
X1853Y1697D02*
X6945D01*
X1890Y1729D02*
X6945D01*
X1936Y1760D02*
X6945D01*
X2489Y1573D02*
Y1837D01*
X2520Y1577D02*
Y1837D01*
X2552Y1577D02*
Y1837D01*
X763Y2359D02*
X3111D01*
X763Y2390D02*
X3097D01*
X763Y2422D02*
X3089D01*
X763Y2453D02*
X3087D01*
X763Y2485D02*
X3090D01*
X763Y2516D02*
X3015D01*
X763Y2548D02*
X2977D01*
X763Y2579D02*
X2954D01*
X763Y2611D02*
X2939D01*
X763Y2642D02*
X2930D01*
X1995Y1792D02*
X6945D01*
X763Y2138D02*
X3410D01*
X2086Y1823D02*
X6945D01*
X2170Y1837D02*
X3289D01*
X2165Y2123D02*
X3290D01*
X763Y2170D02*
X3503D01*
X763Y2201D02*
X3563D01*
X763Y2233D02*
X3609D01*
X763Y2264D02*
X3248D01*
X763Y2327D02*
X3133D01*
X763Y2296D02*
X3168D01*
X2687Y1540D02*
X2896D01*
X2583Y1575D02*
Y1837D01*
X2711Y1525D02*
X2873D01*
X2678Y1545D02*
Y1837D01*
X2709Y1526D02*
Y1837D01*
X2741Y1525D02*
Y1837D01*
X2772Y1525D02*
Y1837D01*
X2804Y1525D02*
Y1837D01*
X2835Y1525D02*
Y1837D01*
X2867Y1525D02*
Y1837D01*
X2603Y1571D02*
X2981D01*
X3210Y1525D02*
X3372D01*
X2898Y1541D02*
Y1837D01*
X3186Y1540D02*
X3395D01*
X2930Y1556D02*
Y1837D01*
X3150Y1557D02*
Y1837D01*
X3213Y1525D02*
Y1837D01*
X3182Y1542D02*
Y1837D01*
X3245Y1525D02*
Y1837D01*
X2615Y1569D02*
Y1837D01*
X2646Y1559D02*
Y1837D01*
X2961Y1566D02*
Y1837D01*
X2993Y1573D02*
Y1837D01*
X3024Y1577D02*
Y1837D01*
X2930Y2123D02*
Y2644D01*
X2961Y2123D02*
Y2567D01*
X3056Y1577D02*
Y1837D01*
X2993Y2123D02*
Y2532D01*
X3024Y2123D02*
Y2511D01*
X3087Y1574D02*
Y1837D01*
X3102Y1571D02*
X3480D01*
X3119Y1567D02*
Y1837D01*
X3213Y2123D02*
Y2273D01*
X3245Y2123D02*
Y2265D01*
X3056Y2123D02*
Y2497D01*
X3087Y2123D02*
Y2489D01*
X3119Y2123D02*
Y2346D01*
X3150Y2123D02*
Y2310D01*
X3182Y2123D02*
Y2287D01*
X2300Y2123D02*
Y2831D01*
X2099Y2831D02*
X2299D01*
X2331Y2123D02*
Y2821D01*
X2363Y2123D02*
Y2817D01*
X2394Y2123D02*
Y2819D01*
X2132Y2863D02*
X2248D01*
X2073Y3146D02*
X2246D01*
X2268Y2123D02*
Y2847D01*
X2237Y3137D02*
Y3521D01*
X2426Y2123D02*
Y2826D01*
X763Y2674D02*
X2927D01*
X1520Y2705D02*
X2930D01*
X1564Y2737D02*
X2938D01*
X1591Y2768D02*
X2952D01*
X2037Y2800D02*
X2974D01*
X2441Y2831D02*
X3011D01*
X2457Y2123D02*
Y2839D01*
X2489Y2123D02*
Y2860D01*
X2492Y2863D02*
X3105D01*
X1774Y3178D02*
X2296D01*
X1903Y3429D02*
X2434D01*
X2457Y3171D02*
Y3424D01*
X2394Y3191D02*
Y3442D01*
X2426Y3184D02*
Y3432D01*
X2268Y3163D02*
Y3501D01*
X1889Y3461D02*
X2345D01*
X2300Y3179D02*
Y3483D01*
X2331Y3189D02*
Y3467D01*
X2363Y3193D02*
Y3453D01*
X1822Y3209D02*
X6945D01*
X1861Y3241D02*
X6945D01*
X2494Y3146D02*
X6945D01*
X2444Y3178D02*
X6945D01*
X1885Y3272D02*
X6945D01*
X1901Y3304D02*
X6945D01*
X1910Y3335D02*
X6945D01*
X1913Y3366D02*
X6945D01*
X2489Y3150D02*
Y3417D01*
X1911Y3398D02*
X6945D01*
X2520Y2123D02*
Y2892D01*
X2552Y2123D02*
Y2958D01*
X2583Y2123D02*
Y3412D01*
X2615Y2123D02*
Y3412D01*
X2646Y2123D02*
Y3412D01*
X2678Y2123D02*
Y3412D01*
X2709Y2123D02*
Y3412D01*
X2741Y2123D02*
Y3412D01*
X2772Y2123D02*
Y3412D01*
X2804Y2123D02*
Y3412D01*
X2835Y2123D02*
Y3412D01*
X2867Y2123D02*
Y3412D01*
X2898Y2123D02*
Y3412D01*
X3256Y2800D02*
X3345D01*
X2930Y2706D02*
Y3412D01*
X2961Y2783D02*
Y3412D01*
X3276Y2771D02*
Y3467D01*
X2993Y2818D02*
Y3412D01*
X3213Y2835D02*
Y3447D01*
X2552Y3052D02*
Y3412D01*
X2535D02*
X3015D01*
X3219Y2831D02*
X3364D01*
X3056Y2853D02*
Y3415D01*
X3125Y2863D02*
X3393D01*
X3087Y2861D02*
Y3419D01*
X3119Y2863D02*
Y3425D01*
X3245Y2811D02*
Y3456D01*
X3150Y2859D02*
Y3431D01*
X3182Y2851D02*
Y3438D01*
X2522Y2894D02*
X3444D01*
X2540Y2926D02*
X4062D01*
X2552Y2957D02*
X4064D01*
X2557Y2989D02*
X4072D01*
X2557Y3020D02*
X4085D01*
X2552Y3052D02*
X4107D01*
X2541Y3083D02*
X4141D01*
X2523Y3115D02*
X4215D01*
X3143Y3429D02*
X6945D01*
X3260Y3461D02*
X6945D01*
X763Y3492D02*
X1107D01*
X763Y3524D02*
X1107D01*
X763Y3555D02*
X1107D01*
X763Y3587D02*
X1107D01*
X763Y3618D02*
X1107D01*
X763Y3650D02*
X1107D01*
X763Y3681D02*
X1107D01*
X763Y3713D02*
X1107D01*
X763Y3744D02*
X1107D01*
X763Y3776D02*
X1107D01*
X1513Y3492D02*
X1583D01*
X1513Y3524D02*
X1617D01*
X1513Y3555D02*
X1695D01*
X1513Y3618D02*
X2126D01*
X1513Y3587D02*
X2157D01*
X1513Y3650D02*
X2094D01*
X1513Y3681D02*
X2063D01*
X1513Y3744D02*
X2000D01*
X1513Y3713D02*
X2031D01*
X763Y3839D02*
X1108D01*
X763Y3870D02*
X1110D01*
X763Y3902D02*
X1113D01*
X763Y3933D02*
X1118D01*
X763Y3965D02*
X1122D01*
X763Y3996D02*
X1128D01*
X763Y4028D02*
X1135D01*
X763Y4059D02*
X1143D01*
X763Y4091D02*
X1152D01*
X763Y4122D02*
X1161D01*
X763Y4154D02*
X1172D01*
X763Y4185D02*
X1184D01*
X763Y4217D02*
X1197D01*
X763Y4248D02*
X1211D01*
X763Y4280D02*
X1226D01*
X763Y4311D02*
X1242D01*
X763Y4343D02*
X1260D01*
X763Y4374D02*
X1279D01*
X763Y4406D02*
X1299D01*
X763Y4437D02*
X1321D01*
X763Y4469D02*
X1345D01*
X1575Y3483D02*
Y4069D01*
X1733Y3558D02*
Y4064D01*
X1827Y3527D02*
Y3917D01*
X1764Y3554D02*
Y3997D01*
X1796Y3544D02*
Y3948D01*
X1607Y3516D02*
Y4131D01*
X1638Y3537D02*
Y4182D01*
X1670Y3550D02*
Y4222D01*
X1701Y3556D02*
Y4254D01*
X1513Y3776D02*
X1968D01*
X1514Y3807D02*
X1937D01*
X1867Y3492D02*
X2282D01*
X1755Y3555D02*
X2192D01*
X1833Y3524D02*
X2233D01*
X1516Y3839D02*
X1905D01*
X1519Y3870D02*
X1874D01*
X1859Y3502D02*
Y3885D01*
X1524Y3902D02*
X1842D01*
X1800Y3944D02*
X2144Y3601D01*
X1548Y3996D02*
X1765D01*
X1559Y4028D02*
X1746D01*
X1571Y4059D02*
X1734D01*
X1586Y4091D02*
X1728D01*
X1602Y4122D02*
X1728D01*
X1620Y4154D02*
X1732D01*
X1641Y4185D02*
X1743D01*
X1733Y4156D02*
Y4285D01*
X1664Y4217D02*
X1761D01*
X1764Y4222D02*
Y4317D01*
X1531Y3933D02*
X1811D01*
X1538Y3965D02*
X1782D01*
X1696Y4248D02*
X1788D01*
X1796Y4255D02*
Y4348D01*
X1727Y4280D02*
X1835D01*
X1827Y4276D02*
Y4380D01*
X1859Y4289D02*
Y4411D01*
X1890Y4296D02*
Y4443D01*
X763Y4500D02*
X1373D01*
X763Y4532D02*
X1404D01*
X1134Y4025D02*
Y6523D01*
X1166Y4137D02*
Y6523D01*
X1197Y4219D02*
Y6523D01*
X1229Y4286D02*
Y6523D01*
X1260Y4344D02*
Y6523D01*
X1292Y4395D02*
Y6523D01*
X1323Y4440D02*
Y6523D01*
X1386Y4514D02*
Y6550D01*
X763Y4563D02*
X1436D01*
X763Y4595D02*
X1467D01*
X763Y4626D02*
X1499D01*
X763Y4658D02*
X1530D01*
X763Y4689D02*
X1562D01*
X1367Y4494D02*
X2011Y5138D01*
X1418Y4545D02*
Y6548D01*
X1449Y4577D02*
Y6536D01*
X1481Y4608D02*
Y6528D01*
X1512Y4640D02*
Y6524D01*
X763Y4721D02*
X1593D01*
X763Y4752D02*
X1625D01*
X763Y4784D02*
X1656D01*
X763Y4815D02*
X1688D01*
X763Y4847D02*
X1719D01*
X763Y6523D02*
X1337D01*
Y6550D02*
X1414D01*
X1544Y4671D02*
Y6523D01*
X1575Y4703D02*
Y6525D01*
X763Y4878D02*
X1751D01*
X763Y4910D02*
X1782D01*
X763Y4941D02*
X1814D01*
X763Y4973D02*
X1845D01*
X763Y5004D02*
X1877D01*
X763Y5036D02*
X1908D01*
X763Y5067D02*
X1940D01*
X763Y5099D02*
X1971D01*
X763Y5130D02*
X2003D01*
X763Y5162D02*
X2039D01*
X763Y5193D02*
X2110D01*
X1922Y4298D02*
Y4474D01*
X1607Y4734D02*
Y6530D01*
X2016Y4268D02*
Y4569D01*
X1953Y4294D02*
Y4506D01*
X1985Y4284D02*
Y4537D01*
X1638Y4766D02*
Y6540D01*
X1670Y4797D02*
Y6550D01*
X1701Y4829D02*
Y6550D01*
X1733Y4860D02*
Y6550D01*
X1764Y4892D02*
Y6550D01*
X2079Y4201D02*
Y4632D01*
X2048Y4243D02*
Y4600D01*
X2174Y4032D02*
Y4726D01*
X2111Y4095D02*
Y4663D01*
X2142Y4064D02*
Y4695D01*
X2205Y4001D02*
Y4758D01*
X1663Y4215D02*
X2239Y4792D01*
X2300Y3906D02*
Y4792D01*
X2237Y3969D02*
Y4789D01*
X2268Y3938D02*
Y4792D01*
X1796Y4923D02*
Y6550D01*
X1827Y4955D02*
Y6550D01*
X1859Y4986D02*
Y6550D01*
X1985Y5112D02*
Y6527D01*
X2016Y5144D02*
Y6523D01*
X1659Y6548D02*
X1919D01*
X1664Y6550D02*
X1913D01*
X1890Y5018D02*
Y6550D01*
X1922Y5049D02*
Y6546D01*
X1953Y5081D02*
Y6535D01*
X2048Y5168D02*
Y6523D01*
X2079Y5184D02*
Y6525D01*
X2111Y5193D02*
Y6532D01*
X2142Y5198D02*
Y6541D01*
X2174Y5213D02*
Y6550D01*
X2205Y5220D02*
Y6550D01*
X2237Y5223D02*
Y6550D01*
X2268Y5220D02*
Y6550D01*
X2241Y3965D02*
X3452D01*
X2209Y3996D02*
X3487D01*
X2335Y3870D02*
X3350D01*
X2304Y3902D02*
X3390D01*
X2272Y3933D02*
X3420D01*
X2103Y4103D02*
X2375Y3830D01*
X2146Y4059D02*
X3569D01*
X2363Y3843D02*
Y4792D01*
X2331Y3875D02*
Y4792D01*
X2178Y4028D02*
X3526D01*
X2087Y4185D02*
X3818D01*
X2069Y4217D02*
X3931D01*
X2115Y4091D02*
X3617D01*
X2102Y4122D02*
X3672D01*
X2098Y4154D02*
X3737D01*
X1759Y4311D02*
X6945D01*
X1790Y4343D02*
X6945D01*
X2042Y4248D02*
X4631D01*
X1995Y4280D02*
X6945D01*
X1822Y4374D02*
X6945D01*
X1853Y4406D02*
X6945D01*
X1885Y4437D02*
X6945D01*
X2239Y4792D02*
X4682D01*
X2328Y5198D02*
X2767D01*
X763Y5225D02*
X2753D01*
X763Y5256D02*
X2742D01*
X763Y5288D02*
X2738D01*
X763Y5319D02*
X2738D01*
X763Y5351D02*
X2744D01*
X1916Y4469D02*
X6945D01*
X1948Y4500D02*
X6945D01*
X1979Y4532D02*
X6945D01*
X2011Y4563D02*
X6945D01*
X2042Y4595D02*
X6945D01*
X2074Y4626D02*
X6945D01*
X2105Y4658D02*
X6945D01*
X2137Y4689D02*
X6945D01*
X2168Y4721D02*
X6945D01*
X2200Y4752D02*
X6945D01*
X2231Y4784D02*
X6945D01*
X2489Y3755D02*
Y4792D01*
X2520Y3744D02*
Y4792D01*
X2552Y3738D02*
Y4792D01*
X2583Y3738D02*
Y4792D01*
X2615Y3738D02*
Y4792D01*
X2646Y3738D02*
Y4792D01*
X2678Y3738D02*
Y4792D01*
X2709Y3738D02*
Y4792D01*
X2741Y3738D02*
Y4792D01*
X2520Y3744D02*
X3051D01*
X2548Y3738D02*
X3007D01*
X2772D02*
Y4792D01*
X2804Y3738D02*
Y4792D01*
X2835Y3738D02*
Y4792D01*
X2867Y3738D02*
Y4792D01*
X2898Y3738D02*
Y4792D01*
X2930Y3738D02*
Y4792D01*
X2961Y3738D02*
Y4792D01*
X2993Y3738D02*
Y4792D01*
X2394Y3812D02*
Y4792D01*
X2426Y3788D02*
Y4792D01*
X3024Y3740D02*
Y4792D01*
X2457Y3769D02*
Y4792D01*
X3056Y3745D02*
Y4792D01*
X3087Y3751D02*
Y4792D01*
X2741Y5198D02*
Y5264D01*
X3119Y3759D02*
Y4792D01*
Y5198D02*
Y5286D01*
X2400Y3807D02*
X3246D01*
X2367Y3839D02*
X3303D01*
X3150Y3769D02*
Y4792D01*
X2445Y3776D02*
X3171D01*
X3182Y3780D02*
Y4792D01*
X3097Y5225D02*
X3138D01*
X3083Y5198D02*
X3154D01*
X3213Y3792D02*
Y4792D01*
X3245Y3807D02*
Y4792D01*
X3276Y3823D02*
Y4792D01*
X763Y5382D02*
X2756D01*
X763Y5414D02*
X2776D01*
X763Y5445D02*
X2806D01*
X763Y5477D02*
X2861D01*
X763Y5508D02*
X3312D01*
X763Y5540D02*
X3315D01*
X763Y5571D02*
X3322D01*
X2300Y5211D02*
Y6550D01*
X2331Y5198D02*
Y6550D01*
X763Y5603D02*
X3337D01*
X763Y5634D02*
X3359D01*
X763Y5666D02*
X3395D01*
X763Y5697D02*
X3485D01*
X763Y5729D02*
X3559D01*
X763Y5760D02*
X3578D01*
X763Y5792D02*
X3607D01*
X763Y5823D02*
X3657D01*
X763Y5855D02*
X4028D01*
X763Y5918D02*
X3945D01*
X763Y5886D02*
X3974D01*
X763Y5949D02*
X3925D01*
X763Y5981D02*
X3914D01*
X763Y6012D02*
X3908D01*
X763Y6044D02*
X3908D01*
X763Y6075D02*
X3913D01*
X763Y6107D02*
X3924D01*
X763Y6138D02*
X3941D01*
X763Y6170D02*
X3969D01*
X2163Y6550D02*
X2412D01*
X2158Y6548D02*
X2418D01*
X763Y6201D02*
X4018D01*
X763Y6233D02*
X4087D01*
X763Y6264D02*
X4124D01*
X763Y6296D02*
X4166D01*
X763Y6327D02*
X4211D01*
X763Y6359D02*
X4263D01*
X763Y6390D02*
X4321D01*
X763Y6422D02*
X4391D01*
X763Y6453D02*
X4478D01*
X763Y6485D02*
X4604D01*
X763Y6516D02*
X5218D01*
X2363Y5198D02*
Y6550D01*
X2489Y5198D02*
Y6526D01*
X2520Y5198D02*
Y6523D01*
X2552Y5198D02*
Y6523D01*
X2583Y5198D02*
Y6526D01*
X2394Y5198D02*
Y6550D01*
X2426Y5198D02*
Y6544D01*
X2457Y5198D02*
Y6533D01*
X2615Y5198D02*
Y6533D01*
X2646Y5198D02*
Y6543D01*
X3094Y5382D02*
X3132D01*
X3087Y5395D02*
Y6527D01*
X3074Y5414D02*
X3148D01*
X2678Y5198D02*
Y6550D01*
X2709Y5198D02*
Y6550D01*
X2741Y5336D02*
Y6550D01*
X3119Y5334D02*
Y6534D01*
X2772Y5409D02*
Y6550D01*
X3150Y5416D02*
Y6545D01*
X2804Y5443D02*
Y6550D01*
X2835Y5465D02*
Y6550D01*
X2867Y5479D02*
Y6550D01*
X2993Y5475D02*
Y6526D01*
X2662Y6550D02*
X2911D01*
X2657Y6548D02*
X2917D01*
X2898Y5486D02*
Y6550D01*
X2930Y5488D02*
Y6542D01*
X2961Y5484D02*
Y6532D01*
X3024Y5459D02*
Y6523D01*
X2989Y5477D02*
X3219D01*
X3044Y5445D02*
X3175D01*
X3056Y5435D02*
Y6523D01*
X3182Y5452D02*
Y6550D01*
X3156Y6548D02*
X3416D01*
X3161Y6550D02*
X3411D01*
X3213Y5474D02*
Y6550D01*
X3245Y5488D02*
Y6550D01*
X3276Y5496D02*
Y6550D01*
Y1525D02*
Y1837D01*
X3308Y1525D02*
Y1837D01*
X3339Y1525D02*
Y1839D01*
X3371Y1525D02*
Y1841D01*
X3402Y1543D02*
Y1845D01*
X3276Y2123D02*
Y2262D01*
X3308Y2124D02*
Y2265D01*
X3339Y2126D02*
Y2273D01*
X3371Y2130D02*
Y2288D01*
X3402Y2136D02*
Y2312D01*
X3434Y1558D02*
Y1850D01*
X3465Y1568D02*
Y1857D01*
X3497Y1574D02*
Y1865D01*
X3528Y1577D02*
Y1874D01*
X3560Y1577D02*
Y1884D01*
X3434Y2144D02*
Y2350D01*
X3465Y2155D02*
Y2539D01*
X3451Y2516D02*
X3544D01*
X3497Y2167D02*
Y2533D01*
X3528Y2182D02*
Y2533D01*
X3300Y2642D02*
X3344D01*
X3278Y2768D02*
X3333D01*
X3303Y2674D02*
X3333D01*
X3292Y2737D02*
X3328D01*
X3302Y2264D02*
X3647D01*
X3382Y2296D02*
X3679D01*
X3417Y2327D02*
X3706D01*
X3453Y2390D02*
X3657D01*
X3439Y2359D02*
X3729D01*
X3461Y2422D02*
X3604D01*
X3463Y2453D02*
X3574D01*
X3460Y2485D02*
X3555D01*
X3560Y2199D02*
Y2476D01*
X3654Y1555D02*
Y1924D01*
X3686Y1540D02*
X3895D01*
X3709Y1525D02*
X3871D01*
X3686Y1540D02*
Y1941D01*
X3717Y1525D02*
Y1960D01*
X3749Y1525D02*
Y1980D01*
X3780Y1525D02*
Y2003D01*
X3812Y1525D02*
Y2027D01*
X3843Y1525D02*
Y2055D01*
X3875Y1528D02*
Y2086D01*
X3906Y1546D02*
Y2120D01*
X4208Y1525D02*
X4370D01*
X4253D02*
Y2742D01*
X4185Y1540D02*
X4394D01*
X4221Y1525D02*
Y2744D01*
X4158Y1553D02*
Y2766D01*
X4284Y1525D02*
Y2745D01*
X4316Y1525D02*
Y2754D01*
X4347Y1525D02*
Y2769D01*
X3591Y1573D02*
Y1896D01*
X3623Y1566D02*
Y1909D01*
X3938Y1559D02*
Y2158D01*
X3623Y2243D02*
Y2408D01*
X3654Y2271D02*
Y2391D01*
X3591Y2219D02*
Y2433D01*
X3686Y2303D02*
Y2381D01*
X3717Y2342D02*
Y2377D01*
X3697Y2768D02*
X3819D01*
X3601Y1571D02*
X3979D01*
X3969Y1569D02*
Y2202D01*
X4001Y1575D02*
Y2253D01*
X4032Y1577D02*
Y2314D01*
X4100Y1571D02*
X4478D01*
X4064Y1577D02*
Y2393D01*
X4095Y1572D02*
Y2513D01*
X4190Y1537D02*
Y2752D01*
X4127Y1564D02*
Y2554D01*
X4111Y2768D02*
X4155D01*
X3308Y2635D02*
Y3478D01*
X3339Y2786D02*
Y3491D01*
X3371Y2840D02*
Y3505D01*
X3402Y2870D02*
Y3521D01*
X3434Y2889D02*
Y3537D01*
X3465Y2901D02*
Y3556D01*
X3654Y2846D02*
Y3705D01*
X3497Y2907D02*
Y3575D01*
X3591Y2892D02*
Y3645D01*
X3637Y2863D02*
X4075D01*
X3586Y2894D02*
X4066D01*
X3685Y2800D02*
X3851D01*
X3666Y2831D02*
X3915D01*
X3717Y2753D02*
Y3763D01*
X3686Y2798D02*
Y3736D01*
X3780Y2745D02*
Y3808D01*
X3749Y2751D02*
Y3787D01*
X3812Y2758D02*
Y3826D01*
X3308Y3842D02*
Y4792D01*
X3339Y3863D02*
Y4792D01*
X3528Y2907D02*
Y3597D01*
X3371Y3886D02*
Y4792D01*
X3560Y2902D02*
Y3620D01*
X3402Y3914D02*
Y4792D01*
X3434Y3947D02*
Y4792D01*
X3465Y3977D02*
Y4792D01*
X3497Y4004D02*
Y4792D01*
X3528Y4030D02*
Y4792D01*
X3560Y4053D02*
Y4792D01*
X3591Y4074D02*
Y4792D01*
X3623Y4094D02*
Y4792D01*
X3654Y4112D02*
Y4792D01*
X3686Y4129D02*
Y4792D01*
X3717Y4145D02*
Y4792D01*
X3749Y4159D02*
Y4792D01*
X3780Y4172D02*
Y4792D01*
X3812Y4183D02*
Y4792D01*
X3843Y2793D02*
Y3843D01*
X3875Y2815D02*
Y3857D01*
X4127Y2746D02*
Y2788D01*
X4095Y2785D02*
Y2824D01*
X4015Y2831D02*
X4090D01*
X3906Y2828D02*
Y3870D01*
X3938Y2836D02*
Y3881D01*
X3969Y2838D02*
Y3890D01*
X4001Y2834D02*
Y3898D01*
X4032Y2825D02*
Y3904D01*
X4079Y2800D02*
X4115D01*
X4379Y1531D02*
Y2793D01*
X4410Y1548D02*
Y2832D01*
X4442Y1561D02*
Y3907D01*
X4473Y1570D02*
Y3907D01*
X4505Y1576D02*
Y3907D01*
X4536Y1577D02*
Y3907D01*
X4568Y1576D02*
Y3907D01*
X4599Y1571D02*
Y3906D01*
X4064Y2810D02*
Y2907D01*
X3843Y4194D02*
Y4792D01*
X4064Y2953D02*
Y3907D01*
X4095Y3036D02*
Y3907D01*
X4127Y3072D02*
Y3907D01*
X3875Y4203D02*
Y4792D01*
X3906Y4211D02*
Y4792D01*
X3938Y4218D02*
Y4792D01*
X3969Y4224D02*
Y4792D01*
X4001Y4229D02*
Y4792D01*
X4158Y3094D02*
Y3907D01*
X4021Y3902D02*
X4606D01*
X4190Y3108D02*
Y3907D01*
X4221Y3116D02*
Y3907D01*
X4253Y3118D02*
Y3907D01*
X4284Y3115D02*
Y3907D01*
X4316Y3106D02*
Y3907D01*
X4051D02*
X4597D01*
X4410Y3028D02*
Y3907D01*
X4347Y3091D02*
Y3907D01*
X4379Y3067D02*
Y3907D01*
X3455Y1855D02*
X6945D01*
X3566Y1886D02*
X6945D01*
X3641Y1918D02*
X6945D01*
X3700Y1949D02*
X6945D01*
X3750Y1981D02*
X6945D01*
X3793Y2012D02*
X6945D01*
X3830Y2044D02*
X6945D01*
X3864Y2075D02*
X6945D01*
X3894Y2107D02*
X6945D01*
X3921Y2138D02*
X6945D01*
X3946Y2170D02*
X6945D01*
X3968Y2201D02*
X6945D01*
X3988Y2233D02*
X6945D01*
X4007Y2264D02*
X6945D01*
X4023Y2296D02*
X6945D01*
X4038Y2327D02*
X6945D01*
X4051Y2359D02*
X6945D01*
X4063Y2390D02*
X6945D01*
X4073Y2422D02*
X6945D01*
X4082Y2453D02*
X6945D01*
X4089Y2485D02*
X6945D01*
X4097Y2516D02*
X6945D01*
X4122Y2548D02*
X6945D01*
X4139Y2579D02*
X6945D01*
X4149Y2611D02*
X6945D01*
X4132Y2737D02*
X6945D01*
X3342Y3492D02*
X6945D01*
X4153Y2642D02*
X6945D01*
X4151Y2674D02*
X6945D01*
X4145Y2705D02*
X6945D01*
X3409Y3524D02*
X6945D01*
X3465Y3555D02*
X6945D01*
X3514Y3587D02*
X6945D01*
X3558Y3618D02*
X6945D01*
X3598Y3650D02*
X6945D01*
X3662Y3713D02*
X6945D01*
X3695Y3744D02*
X6945D01*
X3734Y3776D02*
X6945D01*
X3780Y3807D02*
X6945D01*
X3835Y3839D02*
X6945D01*
X3907Y3870D02*
X6945D01*
X4707Y1525D02*
X4869D01*
X4684Y1540D02*
X4893D01*
X5206Y1525D02*
X5368D01*
X4662Y1551D02*
Y3884D01*
X4693Y1534D02*
Y3882D01*
X4725Y1525D02*
Y3885D01*
X4756Y1525D02*
Y3894D01*
X4788Y1525D02*
Y3910D01*
X5183Y1540D02*
X5392D01*
X5682D02*
X5891D01*
X5706Y1525D02*
X5867D01*
X6205D02*
X6238D01*
X6181Y1540D02*
X6238D01*
Y1525D02*
Y1577D01*
X6832Y1525D02*
Y1577D01*
Y1525D02*
X6945D01*
X4599Y1571D02*
X4977D01*
X5098D02*
X5476D01*
X6832Y1540D02*
X6945D01*
X5598Y1571D02*
X5975D01*
X6097D02*
X6238D01*
X4345Y2768D02*
X6945D01*
X4385Y2800D02*
X6945D01*
X4630Y1563D02*
Y3892D01*
X6238Y1577D02*
X6832D01*
Y1571D02*
X6945D01*
X4410Y2831D02*
X6945D01*
X4425Y2863D02*
X6945D01*
X4434Y2894D02*
X6945D01*
X4438Y2926D02*
X6945D01*
X4436Y2957D02*
X6945D01*
X4393Y3052D02*
X6945D01*
X4359Y3083D02*
X6945D01*
X4285Y3115D02*
X6945D01*
X4428Y2989D02*
X6945D01*
X4415Y3020D02*
X6945D01*
X4774Y3902D02*
X6945D01*
X4819Y1525D02*
Y3934D01*
X4851Y1525D02*
Y3973D01*
X4882Y1534D02*
Y4804D01*
X4914Y1551D02*
Y4809D01*
X4945Y1563D02*
Y4815D01*
X4977Y1571D02*
Y4823D01*
X5008Y1576D02*
Y4830D01*
X5040Y1577D02*
Y4839D01*
X5071Y1576D02*
Y4849D01*
X5103Y1570D02*
Y4860D01*
X5166Y1548D02*
Y4885D01*
X5134Y1561D02*
Y4872D01*
X5229Y1525D02*
Y4915D01*
X5197Y1531D02*
Y4899D01*
X5260Y1525D02*
Y4931D01*
X5292Y1525D02*
Y4949D01*
X5323Y1525D02*
Y4968D01*
X5355Y1525D02*
Y4989D01*
X5386Y1537D02*
Y5011D01*
X5418Y1553D02*
Y5035D01*
X4040Y4233D02*
X4597D01*
X4819Y4206D02*
Y4796D01*
X4851Y4167D02*
Y4800D01*
X5449Y1564D02*
Y5060D01*
X5481Y1572D02*
Y5088D01*
X5512Y1576D02*
Y5120D01*
X5544Y1577D02*
Y5151D01*
X5575Y1575D02*
Y5183D01*
X4819Y3933D02*
X6945D01*
X4846Y3965D02*
X6945D01*
X4863Y3996D02*
X6945D01*
X4873Y4028D02*
X6945D01*
X4877Y4059D02*
X6945D01*
X4877Y4091D02*
X6945D01*
X4858Y4154D02*
X6945D01*
X4838Y4185D02*
X6945D01*
X5607Y1569D02*
Y5214D01*
X5638Y1560D02*
Y5246D01*
X4870Y4122D02*
X6945D01*
X5670Y1546D02*
Y5277D01*
X5701Y1528D02*
Y5309D01*
X5733Y1525D02*
Y5340D01*
X5764Y1525D02*
Y5372D01*
X5796Y1525D02*
Y5403D01*
X5827Y1525D02*
Y5435D01*
X5859Y1525D02*
Y5466D01*
X5890Y1539D02*
Y5498D01*
X5922Y1555D02*
Y5529D01*
X5953Y1566D02*
Y5561D01*
X6142Y1558D02*
Y5750D01*
X5985Y1573D02*
Y5592D01*
X6205Y1525D02*
Y5813D01*
X6174Y1544D02*
Y5781D01*
X6237Y1525D02*
Y5844D01*
X6835Y1525D02*
Y6550D01*
X6867Y1525D02*
Y6550D01*
X6898Y1525D02*
Y6550D01*
X6930Y1525D02*
Y6550D01*
X6945Y1525D02*
Y6550D01*
X6016Y1577D02*
Y5624D01*
X6048Y1577D02*
Y5655D01*
X6079Y1574D02*
Y5687D01*
X6111Y1568D02*
Y5718D01*
X6268Y1577D02*
Y5876D01*
X6300Y1577D02*
Y5907D01*
X6331Y1577D02*
Y5939D01*
X6363Y1577D02*
Y5970D01*
X6426Y1577D02*
Y6036D01*
X6457Y1577D02*
Y6073D01*
X6489Y1577D02*
Y6112D01*
X6520Y1577D02*
Y6156D01*
X6552Y1577D02*
Y6204D01*
X6583Y1577D02*
Y6258D01*
X6615Y1577D02*
Y6320D01*
X6646Y1577D02*
Y6391D01*
X6678Y1577D02*
Y6479D01*
X6709Y1577D02*
Y6550D01*
X6741Y1577D02*
Y6550D01*
X6772Y1577D02*
Y6550D01*
X6804Y1577D02*
Y6550D01*
X3875Y5198D02*
Y5276D01*
X4064Y4233D02*
Y4792D01*
X3906Y5198D02*
Y5585D01*
X4095Y4233D02*
Y4792D01*
X3938Y5198D02*
Y5928D01*
X3969Y5198D02*
Y5891D01*
X4001Y5198D02*
Y5868D01*
X4032Y5198D02*
Y5853D01*
X4064Y5198D02*
Y5845D01*
X4127Y4233D02*
Y4792D01*
X3817Y5198D02*
X4684D01*
X4158Y4233D02*
Y4792D01*
X4190Y4233D02*
Y4792D01*
X4221Y4233D02*
Y4792D01*
X4095Y5198D02*
Y5842D01*
X3844Y5225D02*
X4909D01*
X4127Y5198D02*
Y5845D01*
X4158Y5198D02*
Y5832D01*
X4190Y5198D02*
Y5776D01*
X3875Y5414D02*
Y5530D01*
X3843Y5467D02*
Y5500D01*
X3515Y5697D02*
X3548D01*
X3882Y5760D02*
X4204D01*
X3853Y5792D02*
X4178D01*
X3803Y5823D02*
X4161D01*
X3859Y5445D02*
X4431D01*
X3834Y5477D02*
X4393D01*
X3853Y5508D02*
X4369D01*
X3882Y5540D02*
X4354D01*
X3900Y5571D02*
X4345D01*
X3912Y5603D02*
X4342D01*
X3917Y5634D02*
X4344D01*
X3917Y5666D02*
X4352D01*
X3912Y5697D02*
X4366D01*
X3901Y5729D02*
X4248D01*
X4253Y4233D02*
Y4792D01*
X4284Y4233D02*
Y4792D01*
X4316Y4233D02*
Y4792D01*
X4347Y4233D02*
Y4792D01*
X4379Y4233D02*
Y4792D01*
X4221Y5198D02*
Y5746D01*
X4253Y5198D02*
Y5726D01*
X4410Y4233D02*
Y4792D01*
X4442Y4233D02*
Y4792D01*
X4473Y4233D02*
Y4792D01*
X4505Y4233D02*
Y4792D01*
X4536Y4233D02*
Y4792D01*
X4568Y4233D02*
Y4792D01*
X4599Y4234D02*
Y4792D01*
X4630Y4248D02*
Y4792D01*
X4662Y4256D02*
Y4792D01*
X4693Y4258D02*
Y4792D01*
X4788Y4230D02*
Y4794D01*
X4725Y4255D02*
Y4791D01*
X4756Y4246D02*
Y4792D01*
X4347Y5198D02*
Y5563D01*
X4379Y5198D02*
Y5494D01*
X4410Y5198D02*
Y5461D01*
X4442Y5198D02*
Y5439D01*
X4473Y5198D02*
Y5426D01*
X4284Y5198D02*
Y5714D01*
X4316Y5198D02*
Y5708D01*
X4347Y5647D02*
Y5708D01*
X4410Y6067D02*
Y6101D01*
X4442Y6050D02*
Y6119D01*
X4505Y5198D02*
Y5419D01*
X4536Y5198D02*
Y5417D01*
X4568Y5198D02*
Y5421D01*
X4599Y5198D02*
Y5430D01*
X4630Y5198D02*
Y5446D01*
X4662Y5198D02*
Y5471D01*
X4693Y5198D02*
Y5513D01*
X3308Y5498D02*
Y6550D01*
X3497Y5698D02*
Y6525D01*
X3528Y5696D02*
Y6523D01*
X3560Y5729D02*
Y6524D01*
X3591Y5776D02*
Y6528D01*
X3339Y5607D02*
Y6550D01*
X3371Y5646D02*
Y6550D01*
X3402Y5670D02*
Y6550D01*
X3434Y5686D02*
Y6540D01*
X3465Y5695D02*
Y6531D01*
X3623Y5804D02*
Y6536D01*
X3654Y5822D02*
Y6547D01*
X3686Y5832D02*
Y6550D01*
X3717Y5837D02*
Y6550D01*
X3749Y5837D02*
Y6550D01*
X3812Y5819D02*
Y6550D01*
X3780Y5831D02*
Y6550D01*
X3906Y5715D02*
Y6550D01*
X3843Y5800D02*
Y6550D01*
X3875Y5770D02*
Y6550D01*
X3660D02*
X3910D01*
X4001Y6192D02*
Y6524D01*
X4032Y6207D02*
Y6523D01*
X4064Y6215D02*
Y6524D01*
X3938Y6132D02*
Y6539D01*
X3655Y6548D02*
X3915D01*
X3969Y6169D02*
Y6530D01*
X4095Y6240D02*
Y6529D01*
X4127Y6266D02*
Y6537D01*
X4158Y6290D02*
Y6549D01*
X4190Y6313D02*
Y6550D01*
X4221Y6333D02*
Y6550D01*
X4159D02*
X4409D01*
X4154Y6548D02*
X4414D01*
X4253Y6353D02*
Y6550D01*
X4284Y6371D02*
Y6550D01*
X4316Y6387D02*
Y6550D01*
X4505Y5976D02*
Y6148D01*
X4473Y6022D02*
Y6134D01*
X4536Y5793D02*
Y6160D01*
X4568Y5789D02*
Y6170D01*
X4599Y5780D02*
Y6180D01*
X4347Y6402D02*
Y6550D01*
X4379Y6416D02*
Y6550D01*
X4693Y5697D02*
Y6199D01*
X4630Y5764D02*
Y6187D01*
X4662Y5739D02*
Y6194D01*
X4725Y5198D02*
Y6202D01*
X4756Y5199D02*
Y6202D01*
X4788Y5202D02*
Y6202D01*
X4819Y5206D02*
Y6202D01*
X4851Y5211D02*
Y6202D01*
X4882Y5218D02*
Y6202D01*
X4914Y5226D02*
Y6202D01*
X4945Y5236D02*
Y6202D01*
X4977Y5247D02*
Y6202D01*
X4410Y6429D02*
Y6549D01*
X4442Y6441D02*
Y6537D01*
X4505Y6461D02*
Y6524D01*
X4536Y6470D02*
Y6523D01*
X4568Y6477D02*
Y6524D01*
X4473Y6452D02*
Y6529D01*
X4599Y6484D02*
Y6530D01*
X4630Y6489D02*
Y6539D01*
X4662Y6494D02*
Y6550D01*
X4693Y6497D02*
Y6550D01*
X4725Y6498D02*
Y6550D01*
X4756Y6498D02*
Y6550D01*
X4788Y6498D02*
Y6550D01*
X4819Y6498D02*
Y6550D01*
X4851Y6498D02*
Y6550D01*
X4659D02*
X4908D01*
X4653Y6548D02*
X4913D01*
X4882Y6498D02*
Y6550D01*
X4914Y6498D02*
Y6547D01*
X4945Y6498D02*
Y6536D01*
X3866Y5256D02*
X5000D01*
X3879Y5288D02*
X5065D01*
X3886Y5319D02*
X5118D01*
X3888Y5351D02*
X5162D01*
X3884Y5382D02*
X5200D01*
X3875Y5414D02*
X5231D01*
X5008Y5260D02*
Y6202D01*
X5040Y5275D02*
Y6202D01*
X5071Y5291D02*
Y6202D01*
X4807Y4217D02*
X6945D01*
X4749Y4248D02*
X6945D01*
X4945Y4815D02*
X6945D01*
X5064Y4847D02*
X6945D01*
X5149Y4878D02*
X6945D01*
X4629Y5445D02*
X5263D01*
X5219Y4910D02*
X6945D01*
X4667Y5477D02*
X5294D01*
X4691Y5508D02*
X5326D01*
X4706Y5540D02*
X5357D01*
X4708Y5666D02*
X5483D01*
X4715Y5571D02*
X5389D01*
X4718Y5603D02*
X5420D01*
X4716Y5634D02*
X5452D01*
X4550Y5792D02*
X5609D01*
X4509Y5823D02*
X5641D01*
X4694Y5697D02*
X5515D01*
X4671Y5729D02*
X5546D01*
X4636Y5760D02*
X5578D01*
X4518Y5855D02*
X5672D01*
X4523Y5886D02*
X5704D01*
X4521Y5918D02*
X5735D01*
X4515Y5949D02*
X5767D01*
X4502Y5981D02*
X5798D01*
X4450Y6044D02*
X5861D01*
X4388Y6075D02*
X5893D01*
X4419Y6107D02*
X5924D01*
X4482Y6012D02*
X5830D01*
X4482Y6138D02*
X5956D01*
X4565Y6170D02*
X5987D01*
X5278Y4941D02*
X6945D01*
X5331Y4973D02*
X6945D01*
X5377Y5004D02*
X6945D01*
X5419Y5036D02*
X6945D01*
X5458Y5067D02*
X6945D01*
X5479Y5086D02*
X6394Y6001D01*
X5491Y5099D02*
X6945D01*
X5523Y5130D02*
X6945D01*
X5554Y5162D02*
X6945D01*
X5586Y5193D02*
X6945D01*
X5617Y5225D02*
X6945D01*
X5649Y5256D02*
X6945D01*
X5680Y5288D02*
X6945D01*
X5712Y5319D02*
X6945D01*
X5743Y5351D02*
X6945D01*
X5775Y5382D02*
X6945D01*
X5806Y5414D02*
X6945D01*
X5838Y5445D02*
X6945D01*
X5869Y5477D02*
X6945D01*
X5901Y5508D02*
X6945D01*
X5932Y5540D02*
X6945D01*
X5964Y5571D02*
X6945D01*
X5995Y5603D02*
X6945D01*
X6027Y5634D02*
X6945D01*
X6058Y5666D02*
X6945D01*
X6090Y5697D02*
X6945D01*
X6121Y5729D02*
X6945D01*
X6153Y5760D02*
X6945D01*
X6184Y5792D02*
X6945D01*
X6216Y5823D02*
X6945D01*
X6247Y5855D02*
X6945D01*
X6279Y5886D02*
X6945D01*
X6310Y5918D02*
X6945D01*
X6342Y5949D02*
X6945D01*
X6373Y5981D02*
X6945D01*
X6404Y6012D02*
X6945D01*
X6433Y6044D02*
X6945D01*
X6459Y6075D02*
X6945D01*
X6484Y6107D02*
X6945D01*
X6508Y6138D02*
X6945D01*
X6529Y6170D02*
X6945D01*
X5103Y5310D02*
Y6202D01*
X4718D02*
X5200D01*
X5134Y5331D02*
Y6202D01*
X5166Y5354D02*
Y6202D01*
X5197Y5380D02*
Y6202D01*
X5229Y5411D02*
Y6205D01*
X5260Y5443D02*
Y6213D01*
X5292Y5474D02*
Y6225D01*
X5323Y5506D02*
Y6238D01*
X5355Y5537D02*
Y6253D01*
X5196Y5379D02*
X6104Y6287D01*
X4712Y6201D02*
X6019D01*
X5386Y5569D02*
Y6271D01*
X5418Y5600D02*
Y6291D01*
X5449Y5632D02*
Y6314D01*
X5481Y5663D02*
Y6341D01*
X5512Y5695D02*
Y6371D01*
X5544Y5726D02*
Y6407D01*
X5575Y5758D02*
Y6449D01*
X5607Y5789D02*
Y6501D01*
X4710Y6498D02*
X5177D01*
X5103D02*
Y6531D01*
X5134Y6498D02*
Y6540D01*
X5166Y6498D02*
Y6550D01*
X5158D02*
X5270D01*
X5197Y6506D02*
Y6550D01*
X5152Y6548D02*
X5267D01*
X5312Y6233D02*
X6050D01*
X5375Y6264D02*
X6082D01*
X5425Y6296D02*
X6113D01*
X5465Y6327D02*
X6140D01*
X5500Y6359D02*
X6165D01*
X5530Y6390D02*
X6188D01*
X5555Y6422D02*
X6208D01*
X5578Y6453D02*
X6226D01*
X5598Y6485D02*
X6243D01*
X5615Y6516D02*
X6258D01*
X5638Y5821D02*
Y6542D01*
X5670Y5852D02*
Y6550D01*
X5701Y5884D02*
Y6550D01*
X5733Y5915D02*
Y6550D01*
X5764Y5947D02*
Y6550D01*
X5796Y5978D02*
Y6550D01*
X5827Y6010D02*
Y6550D01*
X5859Y6041D02*
Y6550D01*
X5890Y6073D02*
Y6550D01*
X5922Y6104D02*
Y6543D01*
X5985Y6167D02*
Y6526D01*
X6016Y6199D02*
Y6523D01*
X6550Y6201D02*
X6945D01*
X6569Y6233D02*
X6945D01*
X6586Y6264D02*
X6945D01*
X5953Y6136D02*
Y6533D01*
X6048Y6230D02*
Y6523D01*
X6079Y6262D02*
Y6526D01*
X6111Y6294D02*
Y6533D01*
X5657Y6550D02*
X5906D01*
X6142Y6330D02*
Y6544D01*
X5651Y6548D02*
X5911D01*
X6174Y6370D02*
Y6550D01*
X6205Y6417D02*
Y6550D01*
X6237Y6473D02*
Y6550D01*
X6156D02*
X6272D01*
X6603Y6296D02*
X6945D01*
X6618Y6327D02*
X6945D01*
X6633Y6359D02*
X6945D01*
X6646Y6390D02*
X6945D01*
X6658Y6422D02*
X6945D01*
X6669Y6453D02*
X6945D01*
X6150Y6548D02*
X6271D01*
X6679Y6485D02*
X6945D01*
X6689Y6516D02*
X6945D01*
X6698Y6550D02*
X6945D01*
X6697Y6548D02*
X6945D01*
M02*
