G04*
G04 #@! TF.GenerationSoftware,Altium Limited,Altium Designer,21.0.3 (12)*
G04*
G04 Layer_Color=8421504*
%FSLAX24Y24*%
%MOIN*%
G70*
G04*
G04 #@! TF.SameCoordinates,1E16EE85-DA87-49D5-AC5D-84A0441416AD*
G04*
G04*
G04 #@! TF.FilePolarity,Positive*
G04*
G01*
G75*
%ADD15R,0.0208X0.0208*%
%ADD16R,0.0188X0.0228*%
%ADD17R,0.0288X0.0668*%
%ADD18R,0.0258X0.0288*%
%ADD19R,0.0308X0.0368*%
%ADD20R,0.0188X0.0228*%
%ADD21R,0.0448X0.0288*%
%ADD22R,0.1228X0.1228*%
%ADD23R,0.0304X0.0098*%
%ADD24R,0.0098X0.0304*%
%ADD25R,0.0228X0.0188*%
D15*
X7165Y5425D02*
D03*
D16*
X7170Y5015D02*
D03*
X1650Y4165D02*
D03*
Y3735D02*
D03*
X5490Y3630D02*
D03*
X5890D02*
D03*
X4885Y4180D02*
D03*
X5285D02*
D03*
X7170Y5015D02*
D03*
X7570D02*
D03*
X5120Y6025D02*
D03*
X5520D02*
D03*
D17*
X7010Y6485D02*
D03*
X8025D02*
D03*
D18*
X7515Y5930D02*
D03*
D19*
X5620Y5560D02*
D03*
X5000Y4810D02*
D03*
Y5560D02*
D03*
X5620Y4810D02*
D03*
D20*
X1250Y4165D02*
D03*
Y3735D02*
D03*
D21*
X1460Y5430D02*
D03*
Y4650D02*
D03*
D22*
X3215Y4005D02*
D03*
D23*
X4200Y4493D02*
D03*
Y4296D02*
D03*
Y4099D02*
D03*
Y3901D02*
D03*
Y3704D02*
D03*
Y3507D02*
D03*
X2225D02*
D03*
Y3704D02*
D03*
Y3901D02*
D03*
Y4099D02*
D03*
Y4296D02*
D03*
Y4493D02*
D03*
X4200Y4690D02*
D03*
Y3310D02*
D03*
X2225D02*
D03*
Y4690D02*
D03*
D24*
X3703Y3010D02*
D03*
X3506D02*
D03*
X3309D02*
D03*
X3111D02*
D03*
X2914D02*
D03*
X2717D02*
D03*
Y4990D02*
D03*
X2914D02*
D03*
X3111D02*
D03*
X3309D02*
D03*
X3506D02*
D03*
X3703D02*
D03*
X3900Y3010D02*
D03*
X2520D02*
D03*
Y4990D02*
D03*
X3900D02*
D03*
D25*
X2135Y5265D02*
D03*
Y5665D02*
D03*
X2530Y5470D02*
D03*
Y5870D02*
D03*
X2395Y2080D02*
D03*
Y2480D02*
D03*
X2810Y2070D02*
D03*
Y2470D02*
D03*
X4285Y2260D02*
D03*
Y2660D02*
D03*
X4730Y2380D02*
D03*
Y2780D02*
D03*
X4735Y3235D02*
D03*
Y3635D02*
D03*
X5125Y3235D02*
D03*
Y3635D02*
D03*
X6225Y3230D02*
D03*
Y3630D02*
D03*
X6075Y5045D02*
D03*
Y5445D02*
D03*
M02*
