G04*
G04 #@! TF.GenerationSoftware,Altium Limited,Altium Designer,21.0.3 (12)*
G04*
G04 Layer_Color=128*
%FSLAX24Y24*%
%MOIN*%
G70*
G04*
G04 #@! TF.SameCoordinates,1E16EE85-DA87-49D5-AC5D-84A0441416AD*
G04*
G04*
G04 #@! TF.FilePolarity,Positive*
G04*
G01*
G75*
%ADD77C,0.0020*%
D77*
X940Y6820D02*
X1140D01*
X1040Y6720D02*
Y6920D01*
X6430Y6820D02*
X6630D01*
X6530Y6720D02*
Y6920D01*
X5931Y6820D02*
X6131D01*
X6031Y6720D02*
Y6920D01*
X5432Y6820D02*
X5632D01*
X5532Y6720D02*
Y6920D01*
X4933Y6820D02*
X5133D01*
X5033Y6720D02*
Y6920D01*
X4434Y6820D02*
X4634D01*
X4534Y6720D02*
Y6920D01*
X3935Y6820D02*
X4135D01*
X4035Y6720D02*
Y6920D01*
X3435Y6820D02*
X3635D01*
X3535Y6720D02*
Y6920D01*
X2936Y6820D02*
X3136D01*
X3036Y6720D02*
Y6920D01*
X2437Y6820D02*
X2637D01*
X2537Y6720D02*
Y6920D01*
X1938Y6820D02*
X2138D01*
X2038Y6720D02*
Y6920D01*
X1439Y6820D02*
X1639D01*
X1539Y6720D02*
Y6920D01*
X6435Y1280D02*
X6635D01*
X6535Y1180D02*
Y1380D01*
X945Y1280D02*
X1145D01*
X1045Y1180D02*
Y1380D01*
X1444Y1280D02*
X1644D01*
X1544Y1180D02*
Y1380D01*
X1943Y1280D02*
X2143D01*
X2043Y1180D02*
Y1380D01*
X2442Y1280D02*
X2642D01*
X2542Y1180D02*
Y1380D01*
X2941Y1280D02*
X3141D01*
X3041Y1180D02*
Y1380D01*
X3440Y1280D02*
X3640D01*
X3540Y1180D02*
Y1380D01*
X3940Y1280D02*
X4140D01*
X4040Y1180D02*
Y1380D01*
X4439Y1280D02*
X4639D01*
X4539Y1180D02*
Y1380D01*
X4938Y1280D02*
X5138D01*
X5038Y1180D02*
Y1380D01*
X5437Y1280D02*
X5637D01*
X5537Y1180D02*
Y1380D01*
X5936Y1280D02*
X6136D01*
X6036Y1180D02*
Y1380D01*
X5901Y7205D02*
X6160D01*
X6031Y7075D02*
Y7335D01*
X5402Y7205D02*
X5661D01*
X5532Y7075D02*
Y7335D01*
X4903Y7205D02*
X5162D01*
X5033Y7075D02*
Y7335D01*
X4404Y7205D02*
X4663D01*
X4534Y7075D02*
Y7335D01*
X3905Y7205D02*
X4164D01*
X4035Y7075D02*
Y7335D01*
X3406Y7205D02*
X3665D01*
X3535Y7075D02*
Y7335D01*
X2907Y7205D02*
X3166D01*
X3036Y7075D02*
Y7335D01*
X2408Y7205D02*
X2667D01*
X2537Y7075D02*
Y7335D01*
X1909Y7205D02*
X2168D01*
X2038Y7075D02*
Y7335D01*
X1410Y7205D02*
X1669D01*
X1539Y7075D02*
Y7335D01*
X6400Y7205D02*
X6660D01*
X6530Y7075D02*
Y7335D01*
X910Y7205D02*
X1170D01*
X1040Y7075D02*
Y7335D01*
X1415Y895D02*
X1674D01*
X1544Y765D02*
Y1025D01*
X1914Y895D02*
X2173D01*
X2043Y765D02*
Y1025D01*
X2413Y895D02*
X2672D01*
X2542Y765D02*
Y1025D01*
X2912Y895D02*
X3171D01*
X3041Y765D02*
Y1025D01*
X3411Y895D02*
X3670D01*
X3540Y765D02*
Y1025D01*
X3910Y895D02*
X4169D01*
X4040Y765D02*
Y1025D01*
X4409Y895D02*
X4668D01*
X4539Y765D02*
Y1025D01*
X4908Y895D02*
X5167D01*
X5038Y765D02*
Y1025D01*
X5407Y895D02*
X5666D01*
X5537Y765D02*
Y1025D01*
X5906Y895D02*
X6165D01*
X6036Y765D02*
Y1025D01*
X915Y895D02*
X1175D01*
X1045Y765D02*
Y1025D01*
X6405Y895D02*
X6665D01*
X6535Y765D02*
Y1025D01*
X3265Y5310D02*
X3345D01*
X3305Y5270D02*
Y5350D01*
X3660Y5345D02*
X3740D01*
X3700Y5305D02*
Y5385D01*
X3460Y5510D02*
X3540D01*
X3500Y5470D02*
Y5550D01*
X2885Y5300D02*
X2965D01*
X2925Y5260D02*
Y5340D01*
X2195Y5035D02*
X2275D01*
X2235Y4995D02*
Y5075D01*
X1875Y4110D02*
X1955D01*
X1915Y4070D02*
Y4150D01*
X1685Y3370D02*
X1765D01*
X1725Y3330D02*
Y3410D01*
X1550Y3140D02*
X1630D01*
X1590Y3100D02*
Y3180D01*
X1945Y2980D02*
X2025D01*
X1985Y2940D02*
Y3020D01*
X1385Y2885D02*
X1465D01*
X1425Y2845D02*
Y2925D01*
X2330Y3005D02*
X2410D01*
X2370Y2965D02*
Y3045D01*
X3075Y2675D02*
X3155D01*
X3115Y2635D02*
Y2715D01*
X3235Y2450D02*
X3315D01*
X3275Y2410D02*
Y2490D01*
X3475Y2720D02*
X3555D01*
X3515Y2680D02*
Y2760D01*
X3685Y2565D02*
X3765D01*
X3725Y2525D02*
Y2605D01*
X3925Y2650D02*
X4005D01*
X3965Y2610D02*
Y2690D01*
X830Y1670D02*
X910D01*
X870Y1630D02*
Y1710D01*
X820Y2345D02*
X900D01*
X860Y2305D02*
Y2385D01*
X815Y3020D02*
X895D01*
X855Y2980D02*
Y3060D01*
X815Y5085D02*
X895D01*
X855Y5045D02*
Y5125D01*
X815Y5760D02*
X895D01*
X855Y5720D02*
Y5800D01*
X815Y6425D02*
X895D01*
X855Y6385D02*
Y6465D01*
X1355Y5880D02*
X1435D01*
X1395Y5840D02*
Y5920D01*
X1835Y5725D02*
X1915D01*
X1875Y5685D02*
Y5765D01*
X4295Y5895D02*
X4375D01*
X4335Y5855D02*
Y5935D01*
X4055Y6030D02*
X4135D01*
X4095Y5990D02*
Y6070D01*
X3690Y5650D02*
X3770D01*
X3730Y5610D02*
Y5690D01*
X4490Y5605D02*
X4570D01*
X4530Y5565D02*
Y5645D01*
X5735Y6100D02*
X5815D01*
X5775Y6060D02*
Y6140D01*
X6745Y6325D02*
X6825D01*
X6785Y6285D02*
Y6365D01*
X6355Y5815D02*
X6435D01*
X6395Y5775D02*
Y5855D01*
X6550Y6010D02*
X6630D01*
X6590Y5970D02*
Y6050D01*
X6775Y5925D02*
X6855D01*
X6815Y5885D02*
Y5965D01*
X6770Y5585D02*
X6850D01*
X6810Y5545D02*
Y5625D01*
X6805Y5265D02*
X6885D01*
X6845Y5225D02*
Y5305D01*
X6780Y4930D02*
X6860D01*
X6820Y4890D02*
Y4970D01*
X6605Y5000D02*
X6685D01*
X6645Y4960D02*
Y5040D01*
X6195Y4725D02*
X6275D01*
X6235Y4685D02*
Y4765D01*
X5945Y4405D02*
X6025D01*
X5985Y4365D02*
Y4445D01*
X5635Y4340D02*
X5715D01*
X5675Y4300D02*
Y4380D01*
X5540Y4030D02*
X5620D01*
X5580Y3990D02*
Y4070D01*
X5890Y3980D02*
X5970D01*
X5930Y3940D02*
Y4020D01*
X6825Y4300D02*
X6905D01*
X6865Y4260D02*
Y4340D01*
X6850Y3925D02*
X6930D01*
X6890Y3885D02*
Y3965D01*
X6835Y3550D02*
X6915D01*
X6875Y3510D02*
Y3590D01*
X6850Y3180D02*
X6930D01*
X6890Y3140D02*
Y3220D01*
X6840Y2805D02*
X6920D01*
X6880Y2765D02*
Y2845D01*
X6850Y2415D02*
X6930D01*
X6890Y2375D02*
Y2455D01*
X6835Y2040D02*
X6915D01*
X6875Y2000D02*
Y2080D01*
X6840Y1655D02*
X6920D01*
X6880Y1615D02*
Y1695D01*
X6620Y1715D02*
X6700D01*
X6660Y1675D02*
Y1755D01*
X6615Y2040D02*
X6695D01*
X6655Y2000D02*
Y2080D01*
X6625Y2355D02*
X6705D01*
X6665Y2315D02*
Y2395D01*
X6590Y3070D02*
X6670D01*
X6630Y3030D02*
Y3110D01*
X6590Y3715D02*
X6670D01*
X6630Y3675D02*
Y3755D01*
X6340Y2600D02*
X6420D01*
X6380Y2560D02*
Y2640D01*
X6190Y2915D02*
X6270D01*
X6230Y2875D02*
Y2955D01*
X5925Y3230D02*
X6005D01*
X5965Y3190D02*
Y3270D01*
X5655Y3240D02*
X5735D01*
X5695Y3200D02*
Y3280D01*
X5445Y3000D02*
X5525D01*
X5485Y2960D02*
Y3040D01*
X5725Y2805D02*
X5805D01*
X5765Y2765D02*
Y2845D01*
X5950Y2600D02*
X6030D01*
X5990Y2560D02*
Y2640D01*
X6355Y2150D02*
X6435D01*
X6395Y2110D02*
Y2190D01*
X6170Y2330D02*
X6250D01*
X6210Y2290D02*
Y2370D01*
X6595Y2720D02*
X6675D01*
X6635Y2680D02*
Y2760D01*
X6610Y4075D02*
X6690D01*
X6650Y4035D02*
Y4115D01*
X6170Y1655D02*
X6250D01*
X6210Y1615D02*
Y1695D01*
X5640Y1675D02*
X5720D01*
X5680Y1635D02*
Y1715D01*
X4510Y1655D02*
X4590D01*
X4550Y1615D02*
Y1695D01*
X4210Y2930D02*
X4290D01*
X4250Y2890D02*
Y2970D01*
X4650Y4070D02*
X4730D01*
X4690Y4030D02*
Y4110D01*
X6595Y3405D02*
X6675D01*
X6635Y3365D02*
Y3445D01*
X6465Y5440D02*
X6545D01*
X6505Y5400D02*
Y5480D01*
X2675Y4525D02*
X2755D01*
X2715Y4485D02*
Y4565D01*
X3000Y4540D02*
X3080D01*
X3040Y4500D02*
Y4580D01*
X3345Y4530D02*
X3425D01*
X3385Y4490D02*
Y4570D01*
X3675Y4535D02*
X3755D01*
X3715Y4495D02*
Y4575D01*
X2680Y4185D02*
X2760D01*
X2720Y4145D02*
Y4225D01*
X3135Y4205D02*
X3215D01*
X3175Y4165D02*
Y4245D01*
X3540Y4185D02*
X3620D01*
X3580Y4145D02*
Y4225D01*
X3180Y3900D02*
X3260D01*
X3220Y3860D02*
Y3940D01*
X2690Y3825D02*
X2770D01*
X2730Y3785D02*
Y3865D01*
X3435Y3500D02*
X3515D01*
X3475Y3460D02*
Y3540D01*
X3710Y3555D02*
X3790D01*
X3750Y3515D02*
Y3595D01*
X6005Y6445D02*
X6085D01*
X6045Y6405D02*
Y6485D01*
X1735Y6425D02*
X1815D01*
X1775Y6385D02*
Y6465D01*
X820Y4400D02*
X900D01*
X860Y4360D02*
Y4440D01*
X805Y3740D02*
X885D01*
X845Y3700D02*
Y3780D01*
X1205Y1665D02*
X1285D01*
X1245Y1625D02*
Y1705D01*
M02*
