G04*
G04 #@! TF.GenerationSoftware,Altium Limited,Altium Designer,21.0.3 (12)*
G04*
G04 Layer_Physical_Order=2*
G04 Layer_Color=36540*
%FSLAX24Y24*%
%MOIN*%
G70*
G04*
G04 #@! TF.SameCoordinates,1E16EE85-DA87-49D5-AC5D-84A0441416AD*
G04*
G04*
G04 #@! TF.FilePolarity,Positive*
G04*
G01*
G75*
%ADD41C,0.0180*%
%ADD44C,0.0043*%
%ADD50C,0.0157*%
%ADD69R,0.0378X0.0378*%
%ADD70O,0.0348X0.0378*%
%ADD71C,0.0378*%
%ADD72C,0.0259*%
%ADD73C,0.0159*%
D41*
X6031Y6356D02*
Y6540D01*
Y6820D01*
Y7095D01*
X5775Y6100D02*
X6031Y6356D01*
D44*
X1189Y1545D02*
G03*
X901Y1545I-144J-265D01*
G01*
X1688D02*
G03*
X1400Y1545I-144J-265D01*
G01*
X2187D02*
G03*
X1900Y1545I-144J-265D01*
G01*
X1617Y2885D02*
G03*
X1606Y2949I-192J0D01*
G01*
X1409Y3076D02*
G03*
X1617Y2885I16J-191D01*
G01*
X1539Y3325D02*
G03*
X1409Y3076I51J-185D01*
G01*
X1606Y2949D02*
G03*
X1782Y3140I-16J191D01*
G01*
X2177Y2980D02*
G03*
X2177Y2980I-192J0D01*
G01*
X1782Y3140D02*
G03*
X1776Y3185I-192J0D01*
G01*
D02*
G03*
X1917Y3370I-51J185D01*
G01*
X2686Y1545D02*
G03*
X2399Y1545I-144J-265D01*
G01*
X3185D02*
G03*
X2898Y1545I-144J-265D01*
G01*
X3087Y2485D02*
G03*
X3467Y2450I188J-35D01*
G01*
X2562Y3005D02*
G03*
X2562Y3005I-192J0D01*
G01*
X3307Y2675D02*
G03*
X3087Y2485I-192J0D01*
G01*
X1917Y3370D02*
G03*
X1539Y3325I-192J0D01*
G01*
X2107Y4110D02*
G03*
X2107Y4110I-192J0D01*
G01*
X2427Y5035D02*
G03*
X2427Y5035I-192J0D01*
G01*
X1465Y6528D02*
G03*
X1613Y6528I74J292D01*
G01*
X1964D02*
G03*
X2112Y6528I74J292D01*
G01*
X2463D02*
G03*
X2611Y6528I74J292D01*
G01*
X3114Y5330D02*
G03*
X3116Y5280I-189J-30D01*
G01*
D02*
G03*
X3497Y5310I189J30D01*
G01*
X3308Y5502D02*
G03*
X3114Y5330I-3J-192D01*
G01*
X2962Y6528D02*
G03*
X3110Y6528I74J292D01*
G01*
X3684Y1545D02*
G03*
X3397Y1545I-144J-265D01*
G01*
X3467Y2450D02*
G03*
X3443Y2542I-192J0D01*
G01*
X3347Y2628D02*
G03*
X3303Y2640I-72J-178D01*
G01*
D02*
G03*
X3307Y2675I-188J35D01*
G01*
X3537Y2529D02*
G03*
X3893Y2472I188J36D01*
G01*
X3443Y2542D02*
G03*
X3537Y2529I72J178D01*
G01*
X4183Y1545D02*
G03*
X3896Y1545I-144J-265D01*
G01*
X4682D02*
G03*
X4395Y1545I-144J-265D01*
G01*
X3703Y2756D02*
G03*
X3347Y2628I-188J-36D01*
G01*
X3797Y2743D02*
G03*
X3703Y2756I-72J-178D01*
G01*
X3893Y2472D02*
G03*
X4157Y2650I72J178D01*
G01*
D02*
G03*
X3797Y2743I-192J0D01*
G01*
X4442Y2930D02*
G03*
X4442Y2930I-192J0D01*
G01*
X5181Y1545D02*
G03*
X4894Y1545I-144J-265D01*
G01*
X5680D02*
G03*
X5393Y1545I-144J-265D01*
G01*
X6180D02*
G03*
X5892Y1545I-144J-265D01*
G01*
X3510Y5319D02*
G03*
X3892Y5345I190J26D01*
G01*
D02*
G03*
X3830Y5486I-192J0D01*
G01*
X3544Y5697D02*
G03*
X3308Y5502I-44J-187D01*
G01*
X3830Y5486D02*
G03*
X3922Y5650I-100J164D01*
G01*
D02*
G03*
X3544Y5697I-192J0D01*
G01*
X4150Y5846D02*
G03*
X4367Y5706I185J49D01*
G01*
X3461Y6528D02*
G03*
X3609Y6528I74J292D01*
G01*
X4280Y6079D02*
G03*
X4150Y5846I-185J-49D01*
G01*
X4527Y5895D02*
G03*
X4280Y6079I-192J0D01*
G01*
X4498Y5794D02*
G03*
X4527Y5895I-163J101D01*
G01*
X3961Y6528D02*
G03*
X4109Y6528I74J292D01*
G01*
X4882Y4070D02*
G03*
X4882Y4070I-192J0D01*
G01*
X4367Y5706D02*
G03*
X4722Y5605I163J-101D01*
G01*
D02*
G03*
X4498Y5794I-192J0D01*
G01*
X4422Y6540D02*
G03*
X4645Y6540I112J280D01*
G01*
X4921D02*
G03*
X5144Y6540I112J280D01*
G01*
X5420D02*
G03*
X5643Y6540I112J280D01*
G01*
X5919D02*
G03*
X6143Y6540I112J280D01*
G01*
X6418D02*
G03*
X6642Y6540I112J280D01*
G01*
X785Y1545D02*
X901D01*
X785Y1579D02*
X1008D01*
X1268Y1545D02*
Y2775D01*
X1308Y1545D02*
Y2733D01*
X1082Y1579D02*
X1507D01*
X1189Y1545D02*
X1400D01*
X1347D02*
Y2710D01*
X1386Y1545D02*
Y2697D01*
X1426Y1557D02*
Y2693D01*
X785Y2800D02*
X1253D01*
X785Y2839D02*
X1239D01*
X785Y2878D02*
X1233D01*
X785Y2918D02*
X1236D01*
X785Y2957D02*
X1247D01*
X785Y2721D02*
X1326D01*
X1465Y1571D02*
Y2698D01*
X1505Y1579D02*
Y2711D01*
X785Y2760D02*
X1279D01*
X1544Y1581D02*
Y2735D01*
X785Y2996D02*
X1269D01*
X1583Y1579D02*
Y2777D01*
X1859Y1545D02*
Y2836D01*
X1623Y1571D02*
Y2951D01*
X1662Y1557D02*
Y2962D01*
X1819Y1545D02*
Y2883D01*
X1581Y1579D02*
X2006D01*
X1688Y1545D02*
X1900D01*
X1898D02*
Y2809D01*
X2174Y1552D02*
Y2947D01*
X1938Y1562D02*
Y2794D01*
X1597Y2800D02*
X1920D01*
X1611Y2839D02*
X1855D01*
X1617Y2878D02*
X1822D01*
X1614Y2918D02*
X1804D01*
X1647Y2957D02*
X1795D01*
X1977Y1574D02*
Y2788D01*
X2016Y1580D02*
Y2791D01*
X2056Y1581D02*
Y2802D01*
X2095Y1577D02*
Y2823D01*
X2134Y1567D02*
Y2860D01*
X2166Y2918D02*
X2199D01*
X785Y1545D02*
Y6519D01*
X796Y1545D02*
Y6519D01*
X835Y1545D02*
Y6519D01*
X875Y1545D02*
Y6519D01*
X914Y1551D02*
Y6519D01*
X953Y1567D02*
Y6519D01*
X993Y1577D02*
Y6519D01*
X1032Y1581D02*
Y6519D01*
X1071Y1580D02*
Y6519D01*
X1190Y1545D02*
Y6519D01*
X1229Y1545D02*
Y6519D01*
X785Y3036D02*
X1307D01*
X1111Y1574D02*
Y6519D01*
X1150Y1562D02*
Y6519D01*
X1268Y2995D02*
Y6519D01*
X1308Y3037D02*
Y6519D01*
X1347Y3060D02*
Y6528D01*
X785Y3075D02*
X1400D01*
X785Y3115D02*
X1400D01*
X785Y3154D02*
X1399D01*
X1386Y3073D02*
Y6528D01*
X785Y3193D02*
X1406D01*
X1701Y1545D02*
Y2984D01*
X1741Y1545D02*
Y3022D01*
X1780Y1545D02*
Y3115D01*
X1717Y2996D02*
X1794D01*
X1751Y3036D02*
X1802D01*
X1770Y3075D02*
X1819D01*
X2174Y3013D02*
Y4853D01*
X1819Y3077D02*
Y3203D01*
X1780Y3115D02*
X1848D01*
X1781Y3154D02*
X1904D01*
X1859Y3124D02*
Y3233D01*
X1898Y3151D02*
Y3288D01*
X1938Y3166D02*
Y3920D01*
X1977Y3172D02*
Y3929D01*
X2016Y3169D02*
Y3947D01*
X2056Y3158D02*
Y3980D01*
X2134Y3100D02*
Y4872D01*
X2095Y3137D02*
Y4044D01*
X785Y1618D02*
X6975D01*
X785Y1658D02*
X6975D01*
X785Y1697D02*
X6975D01*
X785Y1737D02*
X6975D01*
X785Y1776D02*
X6975D01*
X785Y1815D02*
X6975D01*
X785Y1855D02*
X6975D01*
X785Y1894D02*
X6975D01*
X785Y1933D02*
X6975D01*
X785Y1973D02*
X6975D01*
X785Y2012D02*
X6975D01*
X785Y2288D02*
X3173D01*
X785Y2327D02*
X3128D01*
X785Y2366D02*
X3102D01*
X785Y2406D02*
X3088D01*
X785Y2445D02*
X3083D01*
X785Y2485D02*
X3086D01*
X785Y2052D02*
X6975D01*
X785Y2091D02*
X6975D01*
X785Y2130D02*
X6975D01*
X785Y2170D02*
X6975D01*
X785Y2209D02*
X6975D01*
X785Y2248D02*
X6975D01*
X2187Y1545D02*
X2399D01*
X2686D02*
X2898D01*
X2081Y1579D02*
X2505D01*
X2292Y1545D02*
Y2830D01*
X2580Y1579D02*
X3004D01*
X3158Y1558D02*
Y2298D01*
X2961Y1571D02*
Y2561D01*
X3001Y1579D02*
Y2521D01*
X3040Y1581D02*
Y2499D01*
X785Y2563D02*
X2959D01*
X785Y2603D02*
X2937D01*
X785Y2642D02*
X2926D01*
X785Y2681D02*
X2923D01*
X1524Y2721D02*
X2929D01*
X1571Y2760D02*
X2943D01*
X3079Y1579D02*
X3503D01*
X3079Y1579D02*
Y2487D01*
X3119Y1571D02*
Y2339D01*
X785Y2524D02*
X2997D01*
X2050Y2800D02*
X2969D01*
X2331Y1545D02*
Y2817D01*
X2371Y1545D02*
Y2813D01*
X2115Y2839D02*
X2274D01*
X2213Y1545D02*
Y2895D01*
X2253Y1545D02*
Y2853D01*
X2410Y1551D02*
Y2817D01*
X2449Y1567D02*
Y2830D01*
X2489Y1577D02*
Y2854D01*
X2528Y1581D02*
Y2897D01*
X2466Y2839D02*
X3016D01*
X2122Y3115D02*
X2213D01*
X2148Y2878D02*
X2226D01*
X2151Y3075D02*
X2192D01*
X2066Y3154D02*
X2249D01*
X2213Y3115D02*
Y4845D01*
X2253Y3157D02*
Y4844D01*
X2514Y2878D02*
X3407D01*
X2541Y2918D02*
X4059D01*
X2491Y3154D02*
X6975D01*
X1799Y3193D02*
X2334D01*
X2449Y3180D02*
Y6528D01*
X2489Y3156D02*
Y6523D01*
X2567Y1580D02*
Y6520D01*
X2607Y1574D02*
Y6527D01*
X2646Y1563D02*
Y6528D01*
X2686Y1545D02*
Y6528D01*
X2725Y1545D02*
Y6528D01*
X2882Y1545D02*
Y5113D01*
X2922Y1557D02*
Y5108D01*
X2764Y1545D02*
Y5195D01*
X2804Y1545D02*
Y5152D01*
X2843Y1545D02*
Y5127D01*
X2961Y2789D02*
Y5112D01*
X3001Y2829D02*
Y5124D01*
X3040Y2851D02*
Y5147D01*
X2528Y3113D02*
Y6519D01*
X3079Y2863D02*
Y5186D01*
X3119Y2867D02*
Y5265D01*
X2556Y2957D02*
X4060D01*
X2562Y2996D02*
X4070D01*
X2559Y3036D02*
X4090D01*
X2548Y3075D02*
X4125D01*
X3158Y2862D02*
Y5187D01*
X2527Y3115D02*
X4198D01*
X785Y3233D02*
X1422D01*
X785Y3272D02*
X1451D01*
X785Y3311D02*
X1504D01*
X785Y3351D02*
X1534D01*
X785Y3390D02*
X1534D01*
X785Y3429D02*
X1543D01*
X785Y3469D02*
X1561D01*
X785Y3508D02*
X1592D01*
X785Y3548D02*
X1653D01*
X785Y3941D02*
X1824D01*
X785Y3981D02*
X1773D01*
X785Y4020D02*
X1746D01*
X785Y4059D02*
X1730D01*
X785Y4099D02*
X1724D01*
X785Y4138D02*
X1725D01*
X785Y4178D02*
X1736D01*
X785Y4217D02*
X1756D01*
X785Y4256D02*
X1791D01*
X785Y4296D02*
X1867D01*
X785Y4847D02*
X2198D01*
X785Y4886D02*
X2114D01*
X785Y4926D02*
X2078D01*
X785Y4965D02*
X2057D01*
X1859Y3507D02*
Y3927D01*
X1741Y3561D02*
Y4030D01*
X1819Y3537D02*
Y3944D01*
X1780Y3554D02*
Y3974D01*
X2292Y3180D02*
Y4852D01*
X1898Y3452D02*
Y3919D01*
X2331Y3193D02*
Y4869D01*
X2371Y3197D02*
Y4900D01*
X2410Y3193D02*
Y4957D01*
X785Y5004D02*
X2046D01*
X2095Y4176D02*
Y4904D01*
X2056Y4240D02*
Y4967D01*
X785Y5044D02*
X2043D01*
X785Y5083D02*
X2049D01*
X785Y5122D02*
X2064D01*
X785Y5162D02*
X2091D01*
X2406Y5122D02*
X2853D01*
X2379Y5162D02*
X2792D01*
X785Y5201D02*
X2139D01*
X2331D02*
X2761D01*
X1505Y3312D02*
Y6521D01*
X1544Y3433D02*
Y6519D01*
X1426Y3239D02*
Y6528D01*
X1465Y3286D02*
Y6528D01*
X1583Y3499D02*
Y6522D01*
X1623Y3532D02*
Y6528D01*
X1662Y3551D02*
Y6528D01*
X1701Y3560D02*
Y6528D01*
X1741Y4190D02*
Y6528D01*
X1780Y4246D02*
Y6528D01*
X1819Y4276D02*
Y6528D01*
X785Y5240D02*
X2743D01*
X785Y6519D02*
X1341D01*
Y6528D02*
X1465D01*
X1859Y4293D02*
Y6528D01*
X1613D02*
X1964D01*
X785Y5280D02*
X2734D01*
X785Y5319D02*
X2734D01*
X785Y5359D02*
X2742D01*
X785Y5398D02*
X2760D01*
X785Y5437D02*
X2791D01*
X785Y5477D02*
X2851D01*
X2016Y4273D02*
Y6519D01*
X2056Y5103D02*
Y6519D01*
X1898Y4301D02*
Y6528D01*
X1938Y4300D02*
Y6528D01*
X1977Y4291D02*
Y6525D01*
X2095Y5166D02*
Y6524D01*
X2134Y5198D02*
Y6528D01*
X2174Y5217D02*
Y6528D01*
X2292Y5218D02*
Y6528D01*
X2410Y5113D02*
Y6528D01*
X2371Y5171D02*
Y6528D01*
X2213Y5225D02*
Y6528D01*
X2253Y5226D02*
Y6528D01*
X2112D02*
X2463D01*
X2331Y5201D02*
Y6528D01*
X2764Y5405D02*
Y6528D01*
X2804Y5448D02*
Y6528D01*
X2843Y5473D02*
Y6528D01*
X2882Y5487D02*
Y6528D01*
X2922Y5492D02*
Y6528D01*
X2961Y5488D02*
Y6528D01*
X785Y3587D02*
X6975D01*
X1797Y3548D02*
X6975D01*
X785Y3626D02*
X6975D01*
X785Y3666D02*
X6975D01*
X785Y3902D02*
X4598D01*
X785Y3705D02*
X6975D01*
X785Y3744D02*
X6975D01*
X785Y3784D02*
X6975D01*
X785Y3823D02*
X6975D01*
X785Y3863D02*
X6975D01*
X785Y4335D02*
X6975D01*
X785Y4374D02*
X6975D01*
X785Y4414D02*
X6975D01*
X785Y4453D02*
X6975D01*
X785Y4492D02*
X6975D01*
X785Y4532D02*
X6975D01*
X785Y4571D02*
X6975D01*
X785Y4611D02*
X6975D01*
X785Y4650D02*
X6975D01*
X785Y4689D02*
X6975D01*
X785Y4729D02*
X6975D01*
X785Y4768D02*
X6975D01*
X785Y4807D02*
X6975D01*
X1859Y3233D02*
X6975D01*
X2406Y3193D02*
X6975D01*
X1890Y3272D02*
X6975D01*
X2006Y3941D02*
X4548D01*
X2057Y3981D02*
X4520D01*
X1908Y3311D02*
X6975D01*
X1916Y3351D02*
X6975D01*
X1916Y3390D02*
X6975D01*
X1858Y3508D02*
X6975D01*
X1907Y3429D02*
X6975D01*
X1889Y3469D02*
X6975D01*
X2084Y4020D02*
X4505D01*
X2100Y4059D02*
X4499D01*
X2106Y4099D02*
X4500D01*
X2074Y4217D02*
X4567D01*
X2105Y4138D02*
X4511D01*
X2094Y4178D02*
X4531D01*
X1963Y4296D02*
X6975D01*
X2039Y4256D02*
X4644D01*
X2272Y4847D02*
X6975D01*
X2356Y4886D02*
X6975D01*
X2392Y4926D02*
X6975D01*
X2413Y4965D02*
X6975D01*
X785Y5516D02*
X3308D01*
X785Y5555D02*
X3314D01*
X785Y5595D02*
X3328D01*
X785Y5634D02*
X3354D01*
X785Y5674D02*
X3400D01*
X785Y5713D02*
X3549D01*
X785Y5752D02*
X3568D01*
X785Y5792D02*
X3601D01*
X785Y5831D02*
X3667D01*
X785Y5870D02*
X3989D01*
X785Y5910D02*
X3946D01*
X785Y5949D02*
X3921D01*
X785Y5989D02*
X3908D01*
X785Y6028D02*
X3903D01*
X785Y6067D02*
X3907D01*
X785Y6107D02*
X3919D01*
X785Y6146D02*
X3942D01*
X785Y6185D02*
X3983D01*
X785Y6225D02*
X6975D01*
X785Y6264D02*
X6975D01*
X785Y6303D02*
X6975D01*
X785Y6343D02*
X6975D01*
X785Y6382D02*
X6975D01*
X3058Y5162D02*
X3183D01*
X3089Y5201D02*
X3147D01*
X3119Y5355D02*
Y6528D01*
X3090Y5398D02*
X3135D01*
X2424Y5004D02*
X6975D01*
X2427Y5044D02*
X6975D01*
X2421Y5083D02*
X6975D01*
X2997Y5122D02*
X3265D01*
X3001Y5476D02*
Y6521D01*
X3059Y5437D02*
X3162D01*
X3040Y5453D02*
Y6519D01*
X2611Y6528D02*
X2962D01*
X3079Y5414D02*
Y6522D01*
X785Y6422D02*
X6975D01*
X2999Y5477D02*
X3210D01*
X785Y6461D02*
X6975D01*
X785Y6500D02*
X6975D01*
X3158Y5433D02*
Y6528D01*
X3110D02*
X3461D01*
X3197Y1545D02*
Y2275D01*
X3237Y1545D02*
Y2262D01*
X3276Y1545D02*
Y2258D01*
X3316Y1545D02*
Y2263D01*
X3355Y1545D02*
Y2276D01*
X3185Y1545D02*
X3397D01*
X3394D02*
Y2300D01*
X3434Y1562D02*
Y2342D01*
X3473Y1574D02*
Y2533D01*
X3512Y1580D02*
Y2528D01*
X3452Y2524D02*
X3538D01*
X3304Y2642D02*
X3340D01*
X3462Y2406D02*
X3618D01*
X3552Y1581D02*
Y2483D01*
X3467Y2445D02*
X3575D01*
X3464Y2485D02*
X3551D01*
X3670Y1552D02*
Y2381D01*
X3709Y1545D02*
Y2374D01*
X3749Y1545D02*
Y2375D01*
X3788Y1545D02*
Y2384D01*
X3827Y1545D02*
Y2403D01*
X3684Y1545D02*
X3896D01*
X4183D02*
X4395D01*
X3867D02*
Y2436D01*
X3906Y1550D02*
Y2468D01*
X3578Y1579D02*
X4002D01*
X3591Y1577D02*
Y2428D01*
X3630Y1568D02*
Y2398D01*
X3945Y1566D02*
Y2459D01*
X3985Y1576D02*
Y2459D01*
X4024Y1581D02*
Y2468D01*
X4077Y1579D02*
X4501D01*
X4682Y1545D02*
X4894D01*
X4576Y1579D02*
X5000D01*
X4064Y1580D02*
Y2486D01*
X4103Y1575D02*
Y2517D01*
X4142Y1563D02*
Y2577D01*
X3287Y2760D02*
X3328D01*
X3276Y2779D02*
Y5120D01*
X3316Y2637D02*
Y5119D01*
X3788Y2746D02*
Y5175D01*
X3702Y2760D02*
X3808D01*
X4142Y2723D02*
Y2771D01*
X3214Y2839D02*
X3365D01*
X3261Y2800D02*
X3341D01*
X3237Y2823D02*
Y5131D01*
X3355Y2826D02*
Y5125D01*
X3709Y2756D02*
Y5153D01*
X3670Y2833D02*
Y5156D01*
X3665Y2839D02*
X3932D01*
X4122Y2760D02*
X4161D01*
X3689Y2800D02*
X3845D01*
X3749Y2755D02*
Y5160D01*
X3827Y2783D02*
Y5202D01*
X3867Y2815D02*
Y5250D01*
X4182Y1546D02*
Y2751D01*
X4260Y1545D02*
Y2739D01*
X4221Y1545D02*
Y2740D01*
X4300Y1545D02*
Y2745D01*
X4339Y1545D02*
Y2760D01*
X4379Y1545D02*
Y2788D01*
X4418Y1556D02*
Y2837D01*
X4654Y1558D02*
Y3882D01*
X4693Y1545D02*
Y3878D01*
X4733Y1545D02*
Y3883D01*
X4772Y1545D02*
Y3897D01*
X4575Y1579D02*
Y3916D01*
X4812Y1545D02*
Y3922D01*
X4615Y1572D02*
Y3894D01*
X4457Y1570D02*
Y5428D01*
X4497Y1578D02*
Y5416D01*
X4536Y1581D02*
Y3956D01*
X4851Y1545D02*
Y3966D01*
X5008Y1580D02*
Y6520D01*
X5048Y1581D02*
Y6519D01*
X4890Y1545D02*
Y6540D01*
X4930Y1561D02*
Y6537D01*
X4969Y1574D02*
Y6525D01*
X5075Y1579D02*
X5499D01*
X5181Y1545D02*
X5393D01*
X5087Y1577D02*
Y6524D01*
X5481Y1576D02*
Y6523D01*
X5680Y1545D02*
X5892D01*
X5574Y1579D02*
X5999D01*
X3377Y2288D02*
X6975D01*
X5520Y1581D02*
Y6519D01*
X3422Y2327D02*
X6975D01*
X3448Y2366D02*
X6975D01*
X3832Y2406D02*
X6975D01*
X3875Y2445D02*
X6975D01*
X4062Y2485D02*
X6975D01*
X4109Y2524D02*
X6975D01*
X4136Y2563D02*
X6975D01*
X4151Y2603D02*
X6975D01*
X4157Y2642D02*
X6975D01*
X4154Y2681D02*
X6975D01*
X4143Y2721D02*
X6975D01*
X4339Y2760D02*
X6975D01*
X4391Y2800D02*
X6975D01*
X6840Y1027D02*
X6975D01*
X6840Y1028D02*
X6975D01*
X6840Y1067D02*
X6975D01*
X6840Y1027D02*
Y1545D01*
Y1107D02*
X6975D01*
X6840Y1146D02*
X6975D01*
X6840Y1185D02*
X6975D01*
X6840Y1225D02*
X6975D01*
X6840Y1264D02*
X6975D01*
X6840Y1303D02*
X6975D01*
X6840Y1343D02*
X6975D01*
X6180Y1545D02*
X6234D01*
X6073Y1579D02*
X6234D01*
Y1545D02*
Y1581D01*
X6836Y1545D02*
Y1581D01*
X6234D02*
X6836D01*
X6840Y1382D02*
X6975D01*
X6840Y1422D02*
X6975D01*
X6840Y1461D02*
X6975D01*
X6840Y1500D02*
X6975D01*
X6840Y1540D02*
X6975D01*
X6836Y1579D02*
X6975D01*
X5166Y1553D02*
Y6540D01*
X5205Y1545D02*
Y6540D01*
X5245Y1545D02*
Y6540D01*
X5284Y1545D02*
Y6540D01*
X5323Y1545D02*
Y6540D01*
X5363Y1545D02*
Y6540D01*
X5402Y1550D02*
Y6540D01*
X5678Y1546D02*
Y6540D01*
X5717Y1545D02*
Y6540D01*
X5756Y1545D02*
Y6540D01*
X5796Y1545D02*
Y6540D01*
X5127Y1568D02*
Y6534D01*
X5442Y1566D02*
Y6532D01*
X5560Y1581D02*
Y6520D01*
X5599Y1575D02*
Y6526D01*
X5835Y1545D02*
Y6540D01*
X5638Y1564D02*
Y6538D01*
X5993Y1578D02*
Y6521D01*
X6032Y1581D02*
Y6519D01*
X6071Y1579D02*
Y6521D01*
X5875Y1545D02*
Y6540D01*
X5914Y1556D02*
Y6540D01*
X5953Y1570D02*
Y6529D01*
X6111Y1572D02*
Y6529D01*
X6150Y1559D02*
Y6540D01*
X6190Y1545D02*
Y6540D01*
X6229Y1545D02*
Y6540D01*
X6268Y1581D02*
Y6540D01*
X6308Y1581D02*
Y6540D01*
X6859Y1027D02*
Y7068D01*
X6347Y1581D02*
Y6540D01*
X6898Y1027D02*
Y7068D01*
X6938Y1027D02*
Y7068D01*
X6975Y1027D02*
Y7068D01*
X6504Y1581D02*
Y6520D01*
X6544Y1581D02*
Y6519D01*
X6583Y1581D02*
Y6523D01*
X6386Y1581D02*
Y6540D01*
X6426Y1581D02*
Y6537D01*
X6465Y1581D02*
Y6526D01*
X6623Y1581D02*
Y6533D01*
X6662Y1581D02*
Y6540D01*
X6701Y1581D02*
Y6540D01*
X6741Y1581D02*
Y6540D01*
X6780Y1581D02*
Y6540D01*
X6819Y1581D02*
Y6540D01*
X3197Y2848D02*
Y5151D01*
X3394Y2869D02*
Y5140D01*
X3434Y2894D02*
Y5168D01*
X3473Y2907D02*
Y5218D01*
X3512Y2912D02*
Y5305D01*
X3427Y5162D02*
X3644D01*
X3630Y2873D02*
Y5166D01*
X3623Y2878D02*
X4065D01*
X3591Y2896D02*
Y5187D01*
X3552Y2908D02*
Y5223D01*
X3463Y5201D02*
X3573D01*
X3484Y5240D02*
X3539D01*
X3867Y5440D02*
Y5516D01*
X3839Y5477D02*
X4387D01*
X3868Y5437D02*
X4437D01*
X3867Y5516D02*
X4360D01*
X3859Y5792D02*
X4173D01*
X3793Y5831D02*
X4154D01*
X3998Y2839D02*
X4081D01*
X4064Y2814D02*
Y2885D01*
X3906Y2832D02*
Y5574D01*
X4024Y2832D02*
Y5852D01*
X4064Y2975D02*
Y5841D01*
X4300Y3115D02*
Y5707D01*
X4418Y3023D02*
Y5449D01*
X4379Y3072D02*
Y5487D01*
X4103Y3053D02*
Y5838D01*
X4142Y3089D02*
Y5844D01*
X4182Y3109D02*
Y5780D01*
X3914Y5595D02*
X4339D01*
X4339Y3100D02*
Y5587D01*
X4260Y3121D02*
Y5718D01*
X3892Y5752D02*
X4207D01*
X4221Y3120D02*
Y5741D01*
X3911Y5713D02*
X4275D01*
X3897Y5555D02*
X4345D01*
X4536Y4184D02*
Y5413D01*
X3921Y5634D02*
X4340D01*
X3920Y5674D02*
X4351D01*
X4339Y5623D02*
Y5703D01*
X3197Y5469D02*
Y6528D01*
X3237Y5489D02*
Y6528D01*
X3276Y5500D02*
Y6528D01*
X3316Y5562D02*
Y6528D01*
X3355Y5635D02*
Y6528D01*
X3512Y5701D02*
Y6519D01*
X3552Y5721D02*
Y6519D01*
X3906Y5726D02*
Y5997D01*
X3394Y5670D02*
Y6528D01*
X3434Y5690D02*
Y6528D01*
X3473Y5700D02*
Y6525D01*
X3591Y5782D02*
Y6524D01*
X3630Y5814D02*
Y6528D01*
X3670Y5832D02*
Y6528D01*
X3709Y5841D02*
Y6528D01*
X3749Y5841D02*
Y6528D01*
X3788Y5833D02*
Y6528D01*
X3827Y5815D02*
Y6528D01*
X3609D02*
X3961D01*
X3867Y5784D02*
Y6528D01*
X3906Y6063D02*
Y6528D01*
X3945Y2841D02*
Y5910D01*
X3985Y2841D02*
Y5873D01*
X4300Y6083D02*
Y6540D01*
X4339Y6087D02*
Y6540D01*
X4379Y6082D02*
Y6540D01*
X4497Y5998D02*
Y6521D01*
X4418Y6068D02*
Y6540D01*
X4536Y5797D02*
Y6519D01*
X4457Y6043D02*
Y6528D01*
X3985Y6187D02*
Y6523D01*
X4024Y6208D02*
Y6519D01*
X4064Y6219D02*
Y6520D01*
X3945Y6150D02*
Y6528D01*
X4103Y6222D02*
Y6526D01*
X4142Y6216D02*
Y6528D01*
X4221Y6174D02*
Y6528D01*
X4182Y6201D02*
Y6528D01*
X4109D02*
X4282D01*
X4260Y6127D02*
Y6528D01*
X4282Y6540D02*
X4422D01*
X4419Y2839D02*
X6975D01*
X4435Y2878D02*
X6975D01*
X4441Y2918D02*
X6975D01*
X4575Y4224D02*
Y5419D01*
X4410Y3036D02*
X6975D01*
X4440Y2957D02*
X6975D01*
X4430Y2996D02*
X6975D01*
X3345Y5122D02*
X6975D01*
X4375Y3075D02*
X6975D01*
X4302Y3115D02*
X6975D01*
X3756Y5162D02*
X6975D01*
X3827Y5201D02*
X6975D01*
X3861Y5240D02*
X6975D01*
X3880Y5280D02*
X6975D01*
X3890Y5319D02*
X6975D01*
X3891Y5359D02*
X6975D01*
X3884Y5398D02*
X6975D01*
X4516Y5831D02*
X6975D01*
X4525Y5870D02*
X6975D01*
X4526Y5910D02*
X6975D01*
X4782Y3902D02*
X6975D01*
X4832Y3941D02*
X6975D01*
X4615Y4246D02*
Y5433D01*
X4860Y3981D02*
X6975D01*
X4654Y4258D02*
Y5459D01*
X4875Y4020D02*
X6975D01*
X4881Y4059D02*
X6975D01*
X4880Y4099D02*
X6975D01*
X4813Y4217D02*
X6975D01*
X4869Y4138D02*
X6975D01*
X4849Y4178D02*
X6975D01*
X4623Y5437D02*
X6975D01*
X4736Y4256D02*
X6975D01*
X4672Y5477D02*
X6975D01*
X4693Y4262D02*
Y5505D01*
X4700Y5516D02*
X6975D01*
X4715Y5555D02*
X6975D01*
X4709Y5674D02*
X6975D01*
X4721Y5595D02*
X6975D01*
X4719Y5634D02*
X6975D01*
X4574Y5792D02*
X6975D01*
X4688Y5713D02*
X6975D01*
X4653Y5752D02*
X6975D01*
X4575Y5791D02*
Y6521D01*
X4615Y5777D02*
Y6530D01*
X4654Y5751D02*
Y6540D01*
X4733Y4257D02*
Y6540D01*
X4693Y5705D02*
Y6540D01*
X4473Y6028D02*
X6975D01*
X4519Y5949D02*
X6975D01*
X4502Y5989D02*
X6975D01*
X4772Y4243D02*
Y6540D01*
X4851Y4174D02*
Y6540D01*
X4812Y4218D02*
Y6540D01*
X4645D02*
X4921D01*
X4645Y6540D02*
X4922D01*
X5144Y6540D02*
X5420D01*
X5144Y6540D02*
X5421D01*
X4248Y6146D02*
X6975D01*
X4419Y6067D02*
X6975D01*
X4271Y6107D02*
X6975D01*
X4207Y6185D02*
X6975D01*
X5643Y6540D02*
X5919D01*
X5643Y6540D02*
X5920D01*
X6143Y6540D02*
X6418D01*
X6142Y6540D02*
X6419D01*
X6642Y6540D02*
X6840D01*
X6641Y6540D02*
X6975D01*
X6840Y6579D02*
X6975D01*
X6840Y6540D02*
Y7068D01*
Y6618D02*
X6975D01*
X6840Y6658D02*
X6975D01*
X6840Y6697D02*
X6975D01*
X6840Y6737D02*
X6975D01*
X6840Y6776D02*
X6975D01*
X6840Y6815D02*
X6975D01*
X6840Y6855D02*
X6975D01*
X6840Y6894D02*
X6975D01*
X6840Y6933D02*
X6975D01*
X6840Y6973D02*
X6975D01*
X6840Y7012D02*
X6975D01*
X6840Y7052D02*
X6975D01*
X6840Y7068D02*
X6975D01*
D50*
X6031Y6540D02*
Y6820D01*
D69*
X1040D02*
D03*
X6535Y1280D02*
D03*
D70*
X6031Y7095D02*
D03*
X5532D02*
D03*
X5033D02*
D03*
X4534D02*
D03*
X4035D02*
D03*
X3535D02*
D03*
X3036D02*
D03*
X2537D02*
D03*
X2038D02*
D03*
X1539D02*
D03*
X6530D02*
D03*
X1040D02*
D03*
X1544Y1005D02*
D03*
X2043D02*
D03*
X2542D02*
D03*
X3041D02*
D03*
X3540D02*
D03*
X4040D02*
D03*
X4539D02*
D03*
X5038D02*
D03*
X5537D02*
D03*
X6036D02*
D03*
X1045D02*
D03*
X6535D02*
D03*
D71*
X6530Y6820D02*
D03*
X6031D02*
D03*
X5532D02*
D03*
X5033D02*
D03*
X4534D02*
D03*
X4035D02*
D03*
X3535D02*
D03*
X3036D02*
D03*
X2537D02*
D03*
X2038D02*
D03*
X1539D02*
D03*
X1045Y1280D02*
D03*
X1544D02*
D03*
X2043D02*
D03*
X2542D02*
D03*
X3041D02*
D03*
X3540D02*
D03*
X4040D02*
D03*
X4539D02*
D03*
X5038D02*
D03*
X5537D02*
D03*
X6036D02*
D03*
D72*
X6031Y7205D02*
D03*
X5532D02*
D03*
X5033D02*
D03*
X4534D02*
D03*
X4035D02*
D03*
X3535D02*
D03*
X3036D02*
D03*
X2537D02*
D03*
X2038D02*
D03*
X1539D02*
D03*
X6530D02*
D03*
X1040D02*
D03*
X1544Y895D02*
D03*
X2043D02*
D03*
X2542D02*
D03*
X3041D02*
D03*
X3540D02*
D03*
X4040D02*
D03*
X4539D02*
D03*
X5038D02*
D03*
X5537D02*
D03*
X6036D02*
D03*
X1045D02*
D03*
X6535D02*
D03*
D73*
X3305Y5310D02*
D03*
X3700Y5345D02*
D03*
X3500Y5510D02*
D03*
X2925Y5300D02*
D03*
X2235Y5035D02*
D03*
X1915Y4110D02*
D03*
X1725Y3370D02*
D03*
X1590Y3140D02*
D03*
X1985Y2980D02*
D03*
X1425Y2885D02*
D03*
X2370Y3005D02*
D03*
X3115Y2675D02*
D03*
X3275Y2450D02*
D03*
X3515Y2720D02*
D03*
X3725Y2565D02*
D03*
X3965Y2650D02*
D03*
X870Y1670D02*
D03*
X860Y2345D02*
D03*
X855Y3020D02*
D03*
Y5085D02*
D03*
Y5760D02*
D03*
Y6425D02*
D03*
X1395Y5880D02*
D03*
X1875Y5725D02*
D03*
X4335Y5895D02*
D03*
X4095Y6030D02*
D03*
X3730Y5650D02*
D03*
X4530Y5605D02*
D03*
X5775Y6100D02*
D03*
X6785Y6325D02*
D03*
X6395Y5815D02*
D03*
X6590Y6010D02*
D03*
X6815Y5925D02*
D03*
X6810Y5585D02*
D03*
X6845Y5265D02*
D03*
X6820Y4930D02*
D03*
X6645Y5000D02*
D03*
X6235Y4725D02*
D03*
X5985Y4405D02*
D03*
X5675Y4340D02*
D03*
X5580Y4030D02*
D03*
X5930Y3980D02*
D03*
X6865Y4300D02*
D03*
X6890Y3925D02*
D03*
X6875Y3550D02*
D03*
X6890Y3180D02*
D03*
X6880Y2805D02*
D03*
X6890Y2415D02*
D03*
X6875Y2040D02*
D03*
X6880Y1655D02*
D03*
X6660Y1715D02*
D03*
X6655Y2040D02*
D03*
X6665Y2355D02*
D03*
X6630Y3070D02*
D03*
Y3715D02*
D03*
X6380Y2600D02*
D03*
X6230Y2915D02*
D03*
X5965Y3230D02*
D03*
X5695Y3240D02*
D03*
X5485Y3000D02*
D03*
X5765Y2805D02*
D03*
X5990Y2600D02*
D03*
X6395Y2150D02*
D03*
X6210Y2330D02*
D03*
X6635Y2720D02*
D03*
X6650Y4075D02*
D03*
X6210Y1655D02*
D03*
X5680Y1675D02*
D03*
X4550Y1655D02*
D03*
X4250Y2930D02*
D03*
X4690Y4070D02*
D03*
X6635Y3405D02*
D03*
X6505Y5440D02*
D03*
X2715Y4525D02*
D03*
X3040Y4540D02*
D03*
X3385Y4530D02*
D03*
X3715Y4535D02*
D03*
X2720Y4185D02*
D03*
X3175Y4205D02*
D03*
X3580Y4185D02*
D03*
X3220Y3900D02*
D03*
X2730Y3825D02*
D03*
X3475Y3500D02*
D03*
X3750Y3555D02*
D03*
X6045Y6445D02*
D03*
X1775Y6425D02*
D03*
X860Y4400D02*
D03*
X845Y3740D02*
D03*
X1245Y1665D02*
D03*
M02*
