G04*
G04 #@! TF.GenerationSoftware,Altium Limited,Altium Designer,21.0.3 (12)*
G04*
G04 Layer_Color=2752767*
%FSLAX24Y24*%
%MOIN*%
G70*
G04*
G04 #@! TF.SameCoordinates,1E16EE85-DA87-49D5-AC5D-84A0441416AD*
G04*
G04*
G04 #@! TF.FilePolarity,Positive*
G04*
G01*
G75*
%ADD77C,0.0020*%
%ADD78C,0.0027*%
D77*
X960Y6740D02*
Y6900D01*
X1120D01*
Y6740D01*
X960D01*
X6450D02*
Y6900D01*
X6610D01*
Y6740D01*
X6450D01*
X5951D02*
Y6900D01*
X6111D01*
Y6740D01*
X5951D01*
X5452D02*
Y6900D01*
X5612D01*
Y6740D01*
X5452D01*
X4953D02*
Y6900D01*
X5113D01*
Y6740D01*
X4953D01*
X4454D02*
Y6900D01*
X4614D01*
Y6740D01*
X4454D01*
X3955D02*
Y6900D01*
X4115D01*
Y6740D01*
X3955D01*
X3455D02*
Y6900D01*
X3615D01*
Y6740D01*
X3455D01*
X2956D02*
Y6900D01*
X3116D01*
Y6740D01*
X2956D01*
X2457D02*
Y6900D01*
X2617D01*
Y6740D01*
X2457D01*
X1958D02*
Y6900D01*
X2118D01*
Y6740D01*
X1958D01*
X1459D02*
Y6900D01*
X1619D01*
Y6740D01*
X1459D01*
X6455Y1200D02*
Y1360D01*
X6615D01*
Y1200D01*
X6455D01*
X965D02*
Y1360D01*
X1125D01*
Y1200D01*
X965D01*
X1464D02*
Y1360D01*
X1624D01*
Y1200D01*
X1464D01*
X1963D02*
Y1360D01*
X2123D01*
Y1200D01*
X1963D01*
X2462D02*
Y1360D01*
X2622D01*
Y1200D01*
X2462D01*
X2961D02*
Y1360D01*
X3121D01*
Y1200D01*
X2961D01*
X3460D02*
Y1360D01*
X3620D01*
Y1200D01*
X3460D01*
X3960D02*
Y1360D01*
X4120D01*
Y1200D01*
X3960D01*
X4459D02*
Y1360D01*
X4619D01*
Y1200D01*
X4459D01*
X4958D02*
Y1360D01*
X5118D01*
Y1200D01*
X4958D01*
X5457D02*
Y1360D01*
X5617D01*
Y1200D01*
X5457D01*
X5956D02*
Y1360D01*
X6116D01*
Y1200D01*
X5956D01*
X3305Y5230D02*
X3225Y5390D01*
X3385D01*
X3305Y5230D01*
X3700Y5265D02*
X3620Y5425D01*
X3780D01*
X3700Y5265D01*
X3500Y5430D02*
X3420Y5590D01*
X3580D01*
X3500Y5430D01*
X2925Y5220D02*
X2845Y5380D01*
X3005D01*
X2925Y5220D01*
X2235Y4955D02*
X2155Y5115D01*
X2315D01*
X2235Y4955D01*
X1915Y4030D02*
X1835Y4190D01*
X1995D01*
X1915Y4030D01*
X1725Y3290D02*
X1645Y3450D01*
X1805D01*
X1725Y3290D01*
X1590Y3060D02*
X1510Y3220D01*
X1670D01*
X1590Y3060D01*
X1985Y2900D02*
X1905Y3060D01*
X2065D01*
X1985Y2900D01*
X1425Y2805D02*
X1345Y2965D01*
X1505D01*
X1425Y2805D01*
X2370Y2925D02*
X2290Y3085D01*
X2450D01*
X2370Y2925D01*
X3115Y2595D02*
X3035Y2755D01*
X3195D01*
X3115Y2595D01*
X3275Y2370D02*
X3195Y2530D01*
X3355D01*
X3275Y2370D01*
X3515Y2640D02*
X3435Y2800D01*
X3595D01*
X3515Y2640D01*
X3725Y2485D02*
X3645Y2645D01*
X3805D01*
X3725Y2485D01*
X3965Y2570D02*
X3885Y2730D01*
X4045D01*
X3965Y2570D01*
X870Y1590D02*
X790Y1750D01*
X950D01*
X870Y1590D01*
X860Y2265D02*
X780Y2425D01*
X940D01*
X860Y2265D01*
X855Y2940D02*
X775Y3100D01*
X935D01*
X855Y2940D01*
Y5005D02*
X775Y5165D01*
X935D01*
X855Y5005D01*
Y5680D02*
X775Y5840D01*
X935D01*
X855Y5680D01*
Y6345D02*
X775Y6505D01*
X935D01*
X855Y6345D01*
X1395Y5800D02*
X1315Y5960D01*
X1475D01*
X1395Y5800D01*
X1875Y5645D02*
X1795Y5805D01*
X1955D01*
X1875Y5645D01*
X4335Y5815D02*
X4255Y5975D01*
X4415D01*
X4335Y5815D01*
X4095Y5950D02*
X4015Y6110D01*
X4175D01*
X4095Y5950D01*
X3730Y5570D02*
X3650Y5730D01*
X3810D01*
X3730Y5570D01*
X4530Y5525D02*
X4450Y5685D01*
X4610D01*
X4530Y5525D01*
X5775Y6020D02*
X5695Y6180D01*
X5855D01*
X5775Y6020D01*
X6785Y6245D02*
X6705Y6405D01*
X6865D01*
X6785Y6245D01*
X6395Y5735D02*
X6315Y5895D01*
X6475D01*
X6395Y5735D01*
X6590Y5930D02*
X6510Y6090D01*
X6670D01*
X6590Y5930D01*
X6815Y5845D02*
X6735Y6005D01*
X6895D01*
X6815Y5845D01*
X6810Y5505D02*
X6730Y5665D01*
X6890D01*
X6810Y5505D01*
X6845Y5185D02*
X6765Y5345D01*
X6925D01*
X6845Y5185D01*
X6820Y4850D02*
X6740Y5010D01*
X6900D01*
X6820Y4850D01*
X6645Y4920D02*
X6565Y5080D01*
X6725D01*
X6645Y4920D01*
X6235Y4645D02*
X6155Y4805D01*
X6315D01*
X6235Y4645D01*
X5985Y4325D02*
X5905Y4485D01*
X6065D01*
X5985Y4325D01*
X5675Y4260D02*
X5595Y4420D01*
X5755D01*
X5675Y4260D01*
X5580Y3950D02*
X5500Y4110D01*
X5660D01*
X5580Y3950D01*
X5930Y3900D02*
X5850Y4060D01*
X6010D01*
X5930Y3900D01*
X6865Y4220D02*
X6785Y4380D01*
X6945D01*
X6865Y4220D01*
X6890Y3845D02*
X6810Y4005D01*
X6970D01*
X6890Y3845D01*
X6875Y3470D02*
X6795Y3630D01*
X6955D01*
X6875Y3470D01*
X6890Y3100D02*
X6810Y3260D01*
X6970D01*
X6890Y3100D01*
X6880Y2725D02*
X6800Y2885D01*
X6960D01*
X6880Y2725D01*
X6890Y2335D02*
X6810Y2495D01*
X6970D01*
X6890Y2335D01*
X6875Y1960D02*
X6795Y2120D01*
X6955D01*
X6875Y1960D01*
X6880Y1575D02*
X6800Y1735D01*
X6960D01*
X6880Y1575D01*
X6660Y1635D02*
X6580Y1795D01*
X6740D01*
X6660Y1635D01*
X6655Y1960D02*
X6575Y2120D01*
X6735D01*
X6655Y1960D01*
X6665Y2275D02*
X6585Y2435D01*
X6745D01*
X6665Y2275D01*
X6630Y2990D02*
X6550Y3150D01*
X6710D01*
X6630Y2990D01*
Y3635D02*
X6550Y3795D01*
X6710D01*
X6630Y3635D01*
X6380Y2520D02*
X6300Y2680D01*
X6460D01*
X6380Y2520D01*
X6230Y2835D02*
X6150Y2995D01*
X6310D01*
X6230Y2835D01*
X5965Y3150D02*
X5885Y3310D01*
X6045D01*
X5965Y3150D01*
X5695Y3160D02*
X5615Y3320D01*
X5775D01*
X5695Y3160D01*
X5485Y2920D02*
X5405Y3080D01*
X5565D01*
X5485Y2920D01*
X5765Y2725D02*
X5685Y2885D01*
X5845D01*
X5765Y2725D01*
X5990Y2520D02*
X5910Y2680D01*
X6070D01*
X5990Y2520D01*
X6395Y2070D02*
X6315Y2230D01*
X6475D01*
X6395Y2070D01*
X6210Y2250D02*
X6130Y2410D01*
X6290D01*
X6210Y2250D01*
X6635Y2640D02*
X6555Y2800D01*
X6715D01*
X6635Y2640D01*
X6650Y3995D02*
X6570Y4155D01*
X6730D01*
X6650Y3995D01*
X6210Y1575D02*
X6130Y1735D01*
X6290D01*
X6210Y1575D01*
X5680Y1595D02*
X5600Y1755D01*
X5760D01*
X5680Y1595D01*
X4550Y1575D02*
X4470Y1735D01*
X4630D01*
X4550Y1575D01*
X4250Y2850D02*
X4170Y3010D01*
X4330D01*
X4250Y2850D01*
X4690Y3990D02*
X4610Y4150D01*
X4770D01*
X4690Y3990D01*
X6635Y3325D02*
X6555Y3485D01*
X6715D01*
X6635Y3325D01*
X6505Y5360D02*
X6425Y5520D01*
X6585D01*
X6505Y5360D01*
X2715Y4445D02*
X2635Y4605D01*
X2795D01*
X2715Y4445D01*
X3040Y4460D02*
X2960Y4620D01*
X3120D01*
X3040Y4460D01*
X3385Y4450D02*
X3305Y4610D01*
X3465D01*
X3385Y4450D01*
X3715Y4455D02*
X3635Y4615D01*
X3795D01*
X3715Y4455D01*
X2720Y4105D02*
X2640Y4265D01*
X2800D01*
X2720Y4105D01*
X3175Y4125D02*
X3095Y4285D01*
X3255D01*
X3175Y4125D01*
X3580Y4105D02*
X3500Y4265D01*
X3660D01*
X3580Y4105D01*
X3220Y3820D02*
X3140Y3980D01*
X3300D01*
X3220Y3820D01*
X2730Y3745D02*
X2650Y3905D01*
X2810D01*
X2730Y3745D01*
X3475Y3420D02*
X3395Y3580D01*
X3555D01*
X3475Y3420D01*
X3750Y3475D02*
X3670Y3635D01*
X3830D01*
X3750Y3475D01*
X6045Y6365D02*
X5965Y6525D01*
X6125D01*
X6045Y6365D01*
X1775Y6345D02*
X1695Y6505D01*
X1855D01*
X1775Y6345D01*
X860Y4320D02*
X780Y4480D01*
X940D01*
X860Y4320D01*
X845Y3660D02*
X765Y3820D01*
X925D01*
X845Y3660D01*
X1245Y1585D02*
X1165Y1745D01*
X1325D01*
X1245Y1585D01*
D78*
X6111Y7205D02*
G03*
X6111Y7205I-80J0D01*
G01*
X5612D02*
G03*
X5612Y7205I-80J0D01*
G01*
X5113D02*
G03*
X5113Y7205I-80J0D01*
G01*
X4614D02*
G03*
X4614Y7205I-80J0D01*
G01*
X4115D02*
G03*
X4115Y7205I-80J0D01*
G01*
X3615D02*
G03*
X3615Y7205I-80J0D01*
G01*
X3116D02*
G03*
X3116Y7205I-80J0D01*
G01*
X2617D02*
G03*
X2617Y7205I-80J0D01*
G01*
X2118D02*
G03*
X2118Y7205I-80J0D01*
G01*
X1619D02*
G03*
X1619Y7205I-80J0D01*
G01*
X6610D02*
G03*
X6610Y7205I-80J0D01*
G01*
X1120D02*
G03*
X1120Y7205I-80J0D01*
G01*
X1624Y895D02*
G03*
X1624Y895I-80J0D01*
G01*
X2123D02*
G03*
X2123Y895I-80J0D01*
G01*
X2622D02*
G03*
X2622Y895I-80J0D01*
G01*
X3121D02*
G03*
X3121Y895I-80J0D01*
G01*
X3620D02*
G03*
X3620Y895I-80J0D01*
G01*
X4120D02*
G03*
X4120Y895I-80J0D01*
G01*
X4619D02*
G03*
X4619Y895I-80J0D01*
G01*
X5118D02*
G03*
X5118Y895I-80J0D01*
G01*
X5617D02*
G03*
X5617Y895I-80J0D01*
G01*
X6116D02*
G03*
X6116Y895I-80J0D01*
G01*
X1125D02*
G03*
X1125Y895I-80J0D01*
G01*
X6615D02*
G03*
X6615Y895I-80J0D01*
G01*
M02*
