G04*
G04 #@! TF.GenerationSoftware,Altium Limited,Altium Designer,21.0.3 (12)*
G04*
G04 Layer_Color=8388736*
%FSLAX24Y24*%
%MOIN*%
G70*
G04*
G04 #@! TF.SameCoordinates,1E16EE85-DA87-49D5-AC5D-84A0441416AD*
G04*
G04*
G04 #@! TF.FilePolarity,Negative*
G04*
G01*
G75*
%ADD26C,0.0170*%
%ADD27R,0.0248X0.0248*%
%ADD28R,0.0228X0.0268*%
%ADD29R,0.0328X0.0708*%
%ADD30R,0.0298X0.0328*%
%ADD31R,0.0348X0.0408*%
%ADD32R,0.0228X0.0268*%
%ADD33R,0.0488X0.0328*%
%ADD34R,0.1268X0.1268*%
%ADD35R,0.0344X0.0138*%
%ADD36R,0.0138X0.0344*%
%ADD37R,0.0268X0.0228*%
%ADD38R,0.0418X0.0418*%
%ADD39O,0.0388X0.0418*%
%ADD40C,0.0418*%
D26*
X6615Y5005D02*
Y6420D01*
X855D02*
X6615D01*
X855Y1665D02*
Y6420D01*
Y1665D02*
X6615D01*
Y4050D01*
D27*
X7165Y5425D02*
D03*
D28*
X7170Y5015D02*
D03*
X1650Y4165D02*
D03*
Y3735D02*
D03*
X5490Y3630D02*
D03*
X5890D02*
D03*
X4885Y4180D02*
D03*
X5285D02*
D03*
X7170Y5015D02*
D03*
X7570D02*
D03*
X5120Y6025D02*
D03*
X5520D02*
D03*
D29*
X7010Y6485D02*
D03*
X8025D02*
D03*
D30*
X7515Y5930D02*
D03*
D31*
X5620Y5560D02*
D03*
X5000Y4810D02*
D03*
Y5560D02*
D03*
X5620Y4810D02*
D03*
D32*
X1250Y4165D02*
D03*
Y3735D02*
D03*
D33*
X1460Y5430D02*
D03*
Y4650D02*
D03*
D34*
X3215Y4005D02*
D03*
D35*
X4200Y4493D02*
D03*
Y4296D02*
D03*
Y4099D02*
D03*
Y3901D02*
D03*
Y3704D02*
D03*
Y3507D02*
D03*
X2225D02*
D03*
Y3704D02*
D03*
Y3901D02*
D03*
Y4099D02*
D03*
Y4296D02*
D03*
Y4493D02*
D03*
X4200Y4690D02*
D03*
Y3310D02*
D03*
X2225D02*
D03*
Y4690D02*
D03*
D36*
X3703Y3010D02*
D03*
X3506D02*
D03*
X3309D02*
D03*
X3111D02*
D03*
X2914D02*
D03*
X2717D02*
D03*
Y4990D02*
D03*
X2914D02*
D03*
X3111D02*
D03*
X3309D02*
D03*
X3506D02*
D03*
X3703D02*
D03*
X3900Y3010D02*
D03*
X2520D02*
D03*
Y4990D02*
D03*
X3900D02*
D03*
D37*
X2135Y5265D02*
D03*
Y5665D02*
D03*
X2530Y5470D02*
D03*
Y5870D02*
D03*
X2395Y2080D02*
D03*
Y2480D02*
D03*
X2810Y2070D02*
D03*
Y2470D02*
D03*
X4285Y2260D02*
D03*
Y2660D02*
D03*
X4730Y2380D02*
D03*
Y2780D02*
D03*
X4735Y3235D02*
D03*
Y3635D02*
D03*
X5125Y3235D02*
D03*
Y3635D02*
D03*
X6225Y3230D02*
D03*
Y3630D02*
D03*
X6075Y5045D02*
D03*
Y5445D02*
D03*
D38*
X1040Y6820D02*
D03*
X6535Y1280D02*
D03*
D39*
X6031Y7095D02*
D03*
X5532D02*
D03*
X5033D02*
D03*
X4534D02*
D03*
X4035D02*
D03*
X3535D02*
D03*
X3036D02*
D03*
X2537D02*
D03*
X2038D02*
D03*
X1539D02*
D03*
X6530D02*
D03*
X1040D02*
D03*
X1544Y1005D02*
D03*
X2043D02*
D03*
X2542D02*
D03*
X3041D02*
D03*
X3540D02*
D03*
X4040D02*
D03*
X4539D02*
D03*
X5038D02*
D03*
X5537D02*
D03*
X6036D02*
D03*
X1045D02*
D03*
X6535D02*
D03*
D40*
X6530Y6820D02*
D03*
X6031D02*
D03*
X5532D02*
D03*
X5033D02*
D03*
X4534D02*
D03*
X4035D02*
D03*
X3535D02*
D03*
X3036D02*
D03*
X2537D02*
D03*
X2038D02*
D03*
X1539D02*
D03*
X1045Y1280D02*
D03*
X1544D02*
D03*
X2043D02*
D03*
X2542D02*
D03*
X3041D02*
D03*
X3540D02*
D03*
X4040D02*
D03*
X4539D02*
D03*
X5038D02*
D03*
X5537D02*
D03*
X6036D02*
D03*
M02*
